<?xml version="1.0" encoding="UTF-8"?>
<svg width="1700px" height="1200px" viewBox="0 0 1700 1200" version="1.1" xmlns="http://www.w3.org/2000/svg" xmlns:xlink="http://www.w3.org/1999/xlink">
    <!-- Generator: Sketch 56.1 (81669) - https://sketch.com -->
    <title>Coworking</title>
    <desc>Created with Sketch.</desc>
    <defs>
        <path d="M46.0235159,196.363501 C39.9800815,195.961369 34.4432561,195.402692 29.41304,194.687471 C23.81304,194.687471 15.11304,193.687471 10.91304,187.687471 C4.81303997,179.087471 11.81304,165.187471 19.61304,149.587471 C29.01304,130.887471 35.3754263,123.724854 45.61304,114.087471 C63.0417555,97.6806001 75.3234197,95.5923746 85.2306463,103.180093 C85.3619086,103.280624 85.4918256,103.391468 85.6203973,103.512624 C90.0428911,102.318671 94.7051365,101.710405 99.51304,101.776276 L121.51304,102.154411 C149.41304,102.438013 172.61304,125.031586 172.21304,152.351849 L172.21304,154.053457 L171.61304,206.708773 L171.51304,256.195587 C170.446373,262.27834 169.879707,265.571807 169.81304,266.075987 C169.71304,266.926791 169.71304,267.683061 169.61304,268.533865 C169.41304,270.802676 169.11304,272.882419 168.51304,274.962162 C168.31304,275.812966 162.396868,279.499784 162.096868,280.350588 C79.750258,286.677621 38.1769531,288.958823 37.3769531,287.194193 C35.7546573,283.44535 38.636845,253.168452 46.0235159,196.363501 Z" id="path-1"></path>
    </defs>
    <g id="Coworking" stroke="none" stroke-width="1" fill="none" fill-rule="evenodd">
        <g id="Group" transform="translate(256.000000, 71.000000)">
            <g id="Interior-/-Chair-/--Chair-2" transform="translate(50.400000, 473.800000)" fill="#D8DEED">
                <g id="Chair-" transform="translate(0.000000, 4.015385)">
                    <path d="M115.401504,299.949231 L36.3,299.949231 C33.9,299.949231 31.8,297.941538 31.8,295.532308 L31.8,295.030385 C31.8,292.621154 33.9,290.613462 36.5,290.613462 L109.8,290.613462 C154.2,290.613462 198.6,290.613462 242.9,290.613462 L310.9,290.613462 C313.3,290.613462 315.4,292.621154 315.4,295.030385 L315.4,295.532308 C315.4,297.941538 313.4,299.949231 310.9,299.949231 L214.398496,299.949231 L241,348.936923 C259.9,383.870769 278.8,418.704231 297.8,453.638077 L329.1,511.258846 C330.2,513.266538 329.3,515.876538 327.2,517.081154 L326.8,517.281923 C324.7,518.386154 322,517.783846 321,515.876538 L203.9,299.949231 L125.9,299.949231 L8.8,515.876538 C7.8,517.783846 5.1,518.486538 3,517.281923 L2.6,517.081154 C0.5,515.876538 -0.4,513.266538 0.7,511.258846 L32,453.638077 C50.9,418.704231 69.8,383.870769 88.8,348.936923 L115.401504,299.949231 Z M32.1,260.668571 L32.1,202.243774 C32.1,157.728749 32.1,113.315823 32.1,68.902897 L32.1,15.8030769 C32.1,7.51880568 38.8157288,0.803076923 47.1,0.803076923 L210.3,0.803076923 C218.584271,0.803076923 225.3,7.51880568 225.3,15.8030769 L225.3,260.841061 C225.3,269.125332 218.584271,275.841061 210.3,275.841061 C210.294715,275.841061 210.289431,275.841058 210.284146,275.841052 L47.0841462,275.668563 C38.8060702,275.659814 32.1,268.946652 32.1,260.668571 Z" id="Combined-Shape" fill-rule="nonzero"></path>
                </g>
            </g>
            <g id="Characters-sitting-/-Woman-sitting/-9" transform="translate(0.000000, 237.800000)">
                <g id="Woman-" transform="translate(96.000000, 87.000000)">
                    <g id="Legs" transform="translate(164.500000, 479.138600) scale(-1, 1) translate(-164.500000, -479.138600) translate(0.000000, 289.138600)" fill-rule="nonzero">
                        <path d="M298.5,379.8614 L195.9,379.8614 C193.5,379.8614 191.4,378.130631 191.4,376.053708 L191.4,374.669092 C191.4,372.592169 193.4,370.8614 195.9,370.8614 L298.4,370.8614 C300.8,370.8614 302.9,372.592169 302.9,374.669092 L302.9,376.053708 C303.1,378.130631 301,379.8614 298.5,379.8614 Z M122.524792,370.768931 L221.850995,296.768931 C223.850995,295.268931 226.750995,295.668931 228.250995,297.668931 C229.750995,299.668931 229.350995,302.568931 227.350995,304.068931 L126.950995,378.868931 C124.950995,380.368931 122.050995,379.968931 120.550995,377.968931 C119.050995,375.968931 119.450995,373.068931 121.450995,371.568931 L122.524792,370.768931 L123.950995,370.768931 C126.450995,370.768931 128.550995,372.823278 128.550995,375.268931 C128.450995,377.812409 126.450995,379.768931 123.950995,379.768931 L68.4509953,379.768931 C65.9509953,379.768931 63.8509953,377.714583 63.8509953,375.268931 C63.8509953,372.823278 65.9509953,370.768931 68.4509953,370.768931 L122.524792,370.768931 Z" id="Base" fill="#FFCB3D"></path>
                        <path d="M209.949782,317.097846 L275.4,308.230987 L298.627269,370.863376 C298.580568,370.862062 298.533739,370.8614 298.486796,370.8614 L195.986796,370.8614 C195.790602,370.8614 195.597488,370.872059 195.408178,370.892709 L203.126535,322.181301 L209.949782,317.097846 Z M221.965599,296.74824 C221.956311,296.755096 221.947041,296.761993 221.937791,296.768931 L122.611588,370.768931 L68.5377913,370.768931 C67.9820081,370.768931 67.4459941,370.870463 66.9484281,371.055255 C66.7456691,370.324938 66.5837925,369.550143 66.5509953,368.8614 C66.6509953,368.1614 66.6509953,367.3614 66.8509953,366.5614 C67.3509953,364.7614 68.1509953,363.0614 69.0509953,361.5614 C71.9509953,356.9614 77.1509953,353.7614 77.1509953,353.7614 C83.1509953,349.8614 88.6509953,347.2614 95.1509953,344.4614 C98.5509953,342.9614 103.350995,340.9614 108.950995,338.7614 C110.750995,332.9614 112.550995,327.1614 114.350995,321.2614 C117.750995,309.9614 121.150995,298.7614 124.450995,287.5614 L184.650995,243.8614 L221.965599,296.748234 L221.965599,296.74824 Z" id="Shoes" fill="#474961"></path>
                        <path d="M181.883691,186.080946 L181.571934,184.982422 C180.856199,183.079215 180.925985,183.009726 181.781292,184.773956 C181.273472,178.212652 180.813041,171.061557 180.4,163.256342 L179.090662,141.412074 L156.072591,132.681752 C164.74938,150.541842 173.404818,168.662115 181.950743,186.919714 C181.928304,186.641223 181.905954,186.361639 181.883693,186.080957 Z M297.294416,147.715444 C297.184445,200.684475 295.48053,272.826364 294.9,297.342486 C294.8,300.694639 295.2,309.765173 289.2,315.483552 C287.5,317.159629 285.8,317.849778 282.6,319.32867 C280.1,320.511783 268.9,324.061122 246.5,326.032977 C245.1,326.13157 243.6,326.230162 242.1,326.13157 C219.117986,325.248767 213.358681,323.682847 204.536125,320.948361 L227.19247,304.068931 C229.19247,302.568931 229.59247,299.668931 228.09247,297.668931 C226.613636,295.697153 223.774036,295.280538 221.777668,296.706564 L204.411264,272.092762 C197.568574,275.931673 186.203982,279.057114 168.824512,285.044481 C135.298826,296.62118 121.865393,304.124943 112.109311,296.70406 C108.844793,294.33199 107.320826,291.491051 106.725678,290.134022 C91.7610279,254.841938 33.643881,155.534642 3.56002016,81.8184592 C3.51979305,81.6292055 3.40186473,81.5553698 3.36163762,81.3661161 C-6.28966447,57.6041143 5.48177017,35.6595051 37.4096419,19.6165175 C50.180876,14.6497125 60.4592122,12.149777 68.8657925,11.5480798 L68.8481309,11.5192039 C191.54479,2.19223863 259.588337,-1.09405075 272.978773,1.66033575 C293.064427,5.79191549 308.053793,15.1295169 317.788593,34.4091154 C327.523393,53.6887139 331.071952,75.1110245 325.114673,104.91456 C319.612366,132.44192 303.845584,145.767683 297.294416,147.715444 Z" fill="#474BFF"></path>
                        <path d="M197.471699,272.24144 C202.468656,270.181339 206.455452,267.450942 208.043758,264.241241 C210.317188,259.782056 210.3943,255.155736 209.366001,250.3614 C203.741403,224.137305 199.695707,206.677843 197.220192,197.952376 C196.994082,197.155403 196.164709,196.692628 195.367737,196.918738 C194.570764,197.144848 194.107988,197.974221 194.334099,198.771194 C196.785947,207.413247 200.821725,224.829908 206.432712,250.990539 C207.329825,255.173233 207.263251,259.167267 205.362997,262.894689 C204.181862,265.281325 200.701318,267.66501 196.328248,269.467901 C195.562357,269.783656 195.197449,270.660504 195.513204,271.426396 C195.828959,272.192287 196.705807,272.557195 197.471699,272.24144 Z" id="Shadow" fill="#482D1F" transform="translate(202.138380, 234.608232) rotate(-12.000000) translate(-202.138380, -234.608232) "></path>
                        <path d="M297.589158,147.986389 C297.592594,146.274012 297.594359,144.581789 297.594359,142.911983 C297.594359,122.404691 297.694359,104.756588 297.894359,93.4184215 C298.094359,84.446481 299.594359,35.1501048 280.194359,24.8964585 C278.494359,24.0091237 276.794359,23.3189744 273.394359,22.0372687 C270.694359,21.0513411 256.694359,15.924518 238.694359,16.71326 C226.994359,17.2062238 209.394359,17.9949658 194.894359,30.3190599 C174.894359,47.3756061 175.394359,74.2914275 175.594359,78.6295086 L179.397655,142.081581 L156.489624,133.392995 C140.382585,100.233339 124.200532,67.9683161 108.507462,37.3838893 C100.822815,22.4424639 91.6818593,10.1973022 68.6336432,12.0467663 L68.5891704,11.9740551 C191.285829,2.64708986 259.329376,-0.639199527 272.719812,2.11518697 C292.805466,6.24676672 307.794833,15.5843681 317.529633,34.8639666 C327.264433,54.1435652 330.812992,75.5658757 324.855712,105.369411 C319.502825,132.149246 304.43537,145.488321 297.589158,147.986389 Z" id="Shadow-Legs" fill="#444444" opacity="0.176985679"></path>
                    </g>
                    <g id="Body" transform="translate(8.000000, 0.000000)">
                        <mask id="mask-2" fill="white">
                            <use xlink:href="#path-1"></use>
                        </mask>
                        <use id="T-shirt" fill="#FFCB3D" fill-rule="nonzero" xlink:href="#path-1"></use>
                        <path d="M103.045407,99.37 C104.73394,97.2333566 106.26851,95.232093 107.649118,93.366209 C112.731294,95.4606882 118.295196,97.6074482 124.340824,99.8064889 C124.933838,100.022192 125.579769,100.04541 126.186738,99.8728397 C127.78043,99.4197307 128.705054,97.7604713 128.251949,96.1667791 L127.083646,92.0575819 C122.839934,89.3337344 120.694932,87.6410326 119.638949,86.8375736 C119.369239,86.5981885 114.333968,83.5735091 114.064258,83.334124 L114.056051,67.4589704 C114.010455,66.3444231 104.637255,52.742492 106.931879,47.9272443 C109.595372,43.3653176 117.541899,35.7380758 122.246008,36.8021548 C124.003107,37.2505788 133.416863,41.3254295 133.752048,39.6599579 L138.268164,14.0015368 C138.50419,12.3221293 139.959866,11.3178321 141.645573,11.5547428 C145.314465,12.070372 148.911966,12.3744879 152.691928,12.0998076 C153.187725,12.1694872 153.598245,12.1264422 153.994882,12.1821859 C157.620151,12.2887244 176.924491,13.7928935 185.251663,29.3690102 C185.949722,30.8774749 186.647782,32.3859397 187.147522,33.8665326 C188.43257,37.6737716 188.670491,41.736806 187.789892,45.8441226 L184.17228,63.6703666 C183.782745,65.1914992 183.393209,66.7126319 182.864391,68.280312 C185.723087,67.724508 187.911957,67.5108151 189.430999,67.6392335 C196.423724,68.2303918 197.468256,71.8225664 192.564593,78.4157571 L171.218361,103.219716 C204.997685,182.720053 221.376309,233.594972 220.354235,255.844474 L269.718519,258.327016 C286.472113,262.519025 310.246907,267.832855 310.246907,267.832855 C309.638895,282.227806 291.949706,280.240643 283.304327,278.308341 L259.081759,283.951532 L240.915747,288.021251 C237.393389,290.644707 231.113236,298.211914 212.617329,298.211914 C189.775207,298.211914 130.493554,295.784888 34.772368,290.930834 C16.3690724,288.667118 6.35087425,284.620273 4.71777344,278.790297 C2.26812223,270.045334 -6.94294448,265.009988 12.3129395,210.752262 C14.530134,204.510249 16.741229,198.644979 18.8901776,193.188122 C22.619262,194.499512 26.6997117,194.809696 29.8185888,194.809696 C44.8900691,196.952634 64.5094562,197.690248 88.6767501,197.02254 C85.8181731,204.189858 83.7164957,210.076657 82.4335594,212.410173 C79.1577401,219.396359 77.5366661,223.025853 77.5703373,223.298657 L170.51441,245.832037 L170.918589,207.776336 L171.018589,206.830998 L171.618589,154.175682 L171.618589,152.474074 C171.908385,132.680823 160.335769,115.368542 143.327376,107.223699 C148.305348,108.365068 153.123861,108.667325 157.782916,108.130472 C165.822931,107.204036 171.899884,99.0846657 176.013776,83.7723596 L175.925226,83.7882029 C177.165788,81.5484765 178.367148,79.1515176 179.511825,76.612799 C171.757745,93.7791299 161.391066,104.453428 153.85465,103.835808 C149.477759,103.321416 145.184172,102.214292 141.100814,100.330794 C140.583416,99.9754708 140.946956,100.272492 134.420728,96.5053423 L132.252243,102.849838 C139.144465,104.97428 142.427597,107.222284 142.027344,106.9752 C139.961572,109.676887 138.672772,111.283141 136.38955,113.012221 C122.884744,123.491705 104.945248,121.144721 90.6375652,116.41703 C89.18132,109.237791 87.3790137,104.825479 85.2306463,103.180093 C84.5143865,102.631526 83.7878357,102.134172 83.0496396,101.689694 C90.3908023,100.269316 97.0581443,99.5696237 103.045407,99.37 Z" id="Skin" fill="#ED9474" fill-rule="nonzero"></path>
                        <path d="M143.089086,107.223699 C148.067058,108.365068 152.885571,108.667325 157.544626,108.130472 C165.584641,107.204036 171.661594,99.0846657 175.775486,83.7723596 L175.686936,83.7882029 C178.115787,79.4031269 180.394365,74.4153431 182.39148,68.940975 C182.471424,68.7199949 182.548263,68.5000576 182.622373,68.2810369 C185.482895,67.7246938 187.673006,67.5107593 189.192709,67.6392335 C196.185434,68.2303918 197.229966,71.8225664 192.326303,78.4157571 L170.980071,103.219716 C204.938301,183.141113 221.311024,234.13307 220.098241,256.195587 L216.870298,256.033253 C208.779159,254.5178 201.07928,253.334921 200.627235,253.472802 L170.273128,246.113745 L170.680299,207.776336 L170.780299,206.830998 L171.380299,154.175682 L171.380299,152.474074 C171.670095,132.680823 160.097479,115.368542 143.089086,107.223699 Z" id="Shadow-Arm" fill="#8C2A00" fill-rule="nonzero" opacity="0.2"></path>
                        <path d="M139.943341,95.0979661 C146.869153,97.8950071 146.471654,97.65363 147.031884,97.9326982 C151.337635,99.2295721 155.743519,99.7283697 160.149404,99.6286102 C166.606586,99.2545956 173.964568,90.4110456 179.26826,76.5467015 L179.571619,76.4472903 C177.403952,93.033369 172.403702,102.344595 164.570867,104.380968 C156.738032,106.417341 147.975768,105.566849 138.284076,101.829493 L139.943341,95.0979661 Z M135.068648,59.2958314 L135.138627,59.242276 L130.838627,47.442276 C129.838627,45.042276 128.138627,43.142276 126.138627,41.542276 C124.538627,40.542276 122.838627,39.842276 121.038627,39.642276 C116.238627,39.242276 111.038627,42.942276 109.038627,47.842276 C107.138627,52.742276 108.038627,58.242276 111.538627,62.042276 C113.738627,64.542276 116.738627,66.242276 120.038627,66.842276 L121.235943,66.8196851 L134.182196,96.0801687 C134.852583,97.5953417 134.167748,99.3670875 132.652574,100.037473 C132.083064,100.289452 131.449252,100.35795 130.839056,100.233464 C90.3196847,91.9671253 69.8372293,82.5684255 69.3916902,72.0373644 C68.997821,62.7276058 75.8427467,47.7378939 89.9264673,27.0682287 C90.9232132,24.2504602 92.3684875,21.4365017 94.4386272,18.842276 C96.5386272,16.142276 99.3386272,14.142276 102.338627,12.642276 C110.338627,8.64227597 116.438627,10.642276 132.238627,10.242276 C135.438627,10.242276 140.138627,9.84227597 146.138627,9.24227597 C146.638627,9.24227597 147.038627,9.14227597 147.438627,9.14227597 C151.038627,8.74227597 169.319571,6.67693353 180.838627,21.942276 C180.738627,22.242276 173.838627,21.242276 169.338627,22.342276 C149.938627,27.142276 144.238627,60.742276 135.338627,59.342276 C135.254028,59.3317011 135.163838,59.3166532 135.068648,59.2958314 Z M170.759097,50.0394754 C168.759097,50.5394754 165.559097,51.0394754 162.759097,50.3394754 C158.059097,49.3394754 162.459097,46.5394754 166.759097,46.3394754 C168.759097,46.2394754 170.359097,47.0394754 171.359097,47.8394754 C172.059097,48.5394754 171.759097,49.8394754 170.759097,50.0394754 Z M187.759097,49.6394754 C185.759097,50.3394754 182.659097,51.1394754 179.759097,50.7394754 C174.859097,50.0394754 179.059097,46.8394754 183.259097,46.3394754 C185.459097,46.0394754 186.959097,46.7394754 188.059097,47.4394754 C188.959097,48.0394754 188.759097,49.3394754 187.759097,49.6394754 Z" id="Hair" fill="#482D1F" fill-rule="nonzero" transform="translate(129.004733, 57.142321) rotate(8.000000) translate(-129.004733, -57.142321) "></path>
                        <path d="M162.796593,67.139687 C161.973333,65.8121922 162.759124,63.0951108 163.292799,61.453407 C163.572751,60.1799759 164.872411,59.5547691 165.961706,59.7078595 C166.640976,59.9043075 167.476548,60.4256705 167.47976,61.8398805 C167.713676,65.2051863 163.805595,69.3011481 162.796593,67.139687 Z M179.149933,69.3370163 C178.524727,68.0373562 179.112465,65.2924402 179.64614,63.6507364 C179.926091,62.3773052 181.225752,61.7520985 182.315046,61.9051889 C182.994317,62.1016369 183.829889,62.6229999 183.8331,64.0372098 C184.067017,67.4025156 180.059909,71.4845602 179.149933,69.3370163 Z" id="Eyes" fill="#482D1F" fill-rule="nonzero"></path>
                        <path d="M177.958283,60.982425 C178.03249,60.4351483 177.648992,59.9313363 177.101715,59.8571292 C176.554438,59.7829222 176.050626,60.166421 175.976419,60.7136977 L175.176419,66.6136977 L175.167395,66.738716 L175.068353,77.3361606 C175.030323,77.4552363 174.935437,77.5339662 174.80431,77.5463487 C172.929925,77.3551523 171.057489,77.8162315 169.371212,78.7798182 C168.891695,79.0538282 168.725098,79.6646828 168.999108,80.1442003 C169.273118,80.6237177 169.883973,80.7903144 170.36349,80.5163045 C171.722286,79.7398498 173.204387,79.3805526 174.65692,79.5419451 L174.767351,79.5480613 C175.93531,79.5480613 176.869551,78.7176247 177.053745,77.6124603 L177.067308,77.4574067 L177.166721,66.8201992 L177.958283,60.982425 Z" id="Nose" fill="#482D1F" fill-rule="nonzero" transform="translate(173.417325, 70.248088) rotate(8.000000) translate(-173.417325, -70.248088) "></path>
                        <path d="M167.002112,86.6994223 C166.302112,86.5994223 164.502112,86.1994223 164.102112,85.0994223 C164.102112,84.8994223 163.902112,84.5994223 164.002112,84.3994223 C164.302112,83.8994223 167.402112,83.8994223 167.402112,83.8994223 C171.502112,83.9994223 172.502112,83.7994223 172.802112,84.2994223 C172.902112,84.5994223 172.902112,84.9994223 172.202112,85.8994223 C171.302112,87.5994223 168.102112,86.8994223 167.002112,86.6994223 Z" id="Mouth" fill="#482D1F" fill-rule="nonzero" transform="translate(168.411780, 85.455922) rotate(8.000000) translate(-168.411780, -85.455922) "></path>
                        <path d="M76.1232931,222.787522 C76.7747636,222.275782 77.7177319,222.389056 78.2294718,223.040526 C78.7412117,223.691997 78.6279376,224.634965 77.9764671,225.146705 L62.0490938,237.657896 C61.3976233,238.169636 60.454655,238.056362 59.9429151,237.404892 C59.4311752,236.753421 59.5444493,235.810453 60.1959198,235.298713 L76.1232931,222.787522 Z M89.811198,174.599154 C89.4949738,173.833456 89.8593446,172.956384 90.6250428,172.64016 C91.3907411,172.323936 92.2678124,172.688307 92.5840366,173.454005 C92.6644569,173.648733 92.7999802,173.997119 92.9737299,174.477642 C93.2602525,175.270052 93.5508601,176.15086 93.8286194,177.098877 C94.5870538,179.687482 95.1109338,182.286923 95.27617,184.756846 C95.7878821,192.405834 92.7376064,197.479056 85.1124376,197.777471 C84.2846441,197.809868 83.5873227,197.165071 83.5549265,196.337277 C83.5225303,195.509484 84.1673272,194.812162 84.9951206,194.779766 C90.6244441,194.559459 92.694881,191.115906 92.2828608,184.957096 C92.1340145,182.732166 91.6514373,180.337666 90.9496453,177.942387 C90.6901254,177.056622 90.4187836,176.234207 90.1524946,175.497756 C89.9945575,175.060963 89.875148,174.754001 89.811198,174.599154 Z" id="Shadow" fill="#482D1F" fill-rule="nonzero" transform="translate(77.476689, 205.252277) rotate(3.000000) translate(-77.476689, -205.252277) "></path>
                    </g>
                </g>
            </g>
            <g id="Active-objects-/-Devices-/-Laptop" transform="translate(417.000000, 478.000000) scale(-1, 1) translate(-417.000000, -478.000000) translate(240.000000, 345.000000)" fill="#474961">
                <g id="Laptop-2" transform="translate(177.000000, 192.500000) scale(-1, 1) translate(-177.000000, -192.500000) translate(74.000000, 119.000000)">
                    <path d="M154.451704,143.509238 C153.455365,145.2701 151.565004,146.46022 149.4,146.46022 L5.7,146.46022 C2.5,146.46022 -5.68434189e-14,143.86022 -5.68434189e-14,140.66022 C-5.68434189e-14,137.46022 2.6,134.86022 5.7,134.86022 L145.475148,134.86022 L194.2,3.76021996 C195.3,0.760219964 198.6,-0.739780036 201.6,0.360219964 C204.6,1.46021996 206.1,4.76021996 205,7.76021996 L154.9,142.56022 C154.776937,142.895847 154.626338,143.2127 154.451704,143.509238 Z" id="Laptop" fill-rule="nonzero"></path>
                </g>
            </g>
            <g id="UI-/-Calendar-/-2" transform="translate(535.000000, 51.000000)">
                <g id="Calendar">
                    <g id="Browser" fill-rule="nonzero">
                        <g id="Background" fill="#F2F6FB">
                            <rect x="0" y="0" width="373" height="356" rx="6"></rect>
                        </g>
                        <g id="Browser-Header" fill="#E1E5F0">
                            <path d="M0,20.0051013 C0,8.95658893 8.95514587,0 20.004604,0 L352.995396,0 C364.043634,0 373,8.96186774 373,20.0051013 L373,43 L0,43 L0,20.0051013 Z M63.9633911,135.116837 L309.535893,135.116837 L309.535893,351.682565 C309.535893,353.887681 307.752074,355.675281 305.52889,355.675281 L67.9703944,355.675281 C65.7573876,355.675281 63.9633911,353.883734 63.9633911,351.682565 L63.9633911,135.116837 Z M86.5819111,168.365826 L86.5819111,196.392896 C86.5819111,198.598413 88.3712076,200.384132 90.5784168,200.384132 L108.435142,200.384132 C110.634468,200.384132 112.431648,198.597195 112.431648,196.392896 L112.431648,168.365826 C112.431648,166.160309 110.642352,164.37459 108.435142,164.37459 L90.5784168,164.37459 C88.3790911,164.37459 86.5819111,166.161527 86.5819111,168.365826 Z M86.5819111,229.131928 L86.5819111,257.158997 C86.5819111,259.364515 88.3712076,261.150234 90.5784168,261.150234 L108.435142,261.150234 C110.634468,261.150234 112.431648,259.363296 112.431648,257.158997 L112.431648,229.131928 C112.431648,226.926411 110.642352,225.140692 108.435142,225.140692 L90.5784168,225.140692 C88.3790911,225.140692 86.5819111,226.927629 86.5819111,229.131928 Z M130.203342,168.365826 L130.203342,196.392896 C130.203342,198.598413 131.992639,200.384132 134.199848,200.384132 L152.056574,200.384132 C154.255899,200.384132 156.053079,198.597195 156.053079,196.392896 L156.053079,168.365826 C156.053079,166.160309 154.263783,164.37459 152.056574,164.37459 L134.199848,164.37459 C132.000522,164.37459 130.203342,166.161527 130.203342,168.365826 Z M130.203342,229.131928 L130.203342,257.158997 C130.203342,259.364515 131.992639,261.150234 134.199848,261.150234 L152.056574,261.150234 C154.255899,261.150234 156.053079,259.363296 156.053079,257.158997 L156.053079,229.131928 C156.053079,226.926411 154.263783,225.140692 152.056574,225.140692 L134.199848,225.140692 C132.000522,225.140692 130.203342,226.927629 130.203342,229.131928 Z M173.824774,168.365826 L173.824774,196.392896 C173.824774,198.598413 175.61407,200.384132 177.821279,200.384132 L195.678005,200.384132 C197.877331,200.384132 199.674511,198.597195 199.674511,196.392896 L199.674511,168.365826 C199.674511,166.160309 197.885214,164.37459 195.678005,164.37459 L177.821279,164.37459 C175.621954,164.37459 173.824774,166.161527 173.824774,168.365826 Z M173.824774,229.131928 L173.824774,257.158997 C173.824774,259.364515 175.61407,261.150234 177.821279,261.150234 L195.678005,261.150234 C197.877331,261.150234 199.674511,259.363296 199.674511,257.158997 L199.674511,229.131928 C199.674511,226.926411 197.885214,225.140692 195.678005,225.140692 L177.821279,225.140692 C175.621954,225.140692 173.824774,226.927629 173.824774,229.131928 Z M217.446205,168.365826 L217.446205,196.392896 C217.446205,198.598413 219.235501,200.384132 221.442711,200.384132 L239.299436,200.384132 C241.498762,200.384132 243.295942,198.597195 243.295942,196.392896 L243.295942,168.365826 C243.295942,166.160309 241.506645,164.37459 239.299436,164.37459 L221.442711,164.37459 C219.243385,164.37459 217.446205,166.161527 217.446205,168.365826 Z M261.067636,168.365826 L261.067636,196.392896 C261.067636,198.598413 262.856933,200.384132 265.064142,200.384132 L282.920867,200.384132 C285.120193,200.384132 286.917373,198.597195 286.917373,196.392896 L286.917373,168.365826 C286.917373,166.160309 285.128077,164.37459 282.920867,164.37459 L265.064142,164.37459 C262.864816,164.37459 261.067636,166.161527 261.067636,168.365826 Z M261.067636,229.131928 L261.067636,257.158997 C261.067636,259.364515 262.856933,261.150234 265.064142,261.150234 L282.920867,261.150234 C285.120193,261.150234 286.917373,259.363296 286.917373,257.158997 L286.917373,229.131928 C286.917373,226.926411 285.128077,225.140692 282.920867,225.140692 L265.064142,225.140692 C262.864816,225.140692 261.067636,226.927629 261.067636,229.131928 Z M86.5819111,289.89803 L86.5819111,317.925099 C86.5819111,320.130617 88.3712076,321.916335 90.5784168,321.916335 L108.435142,321.916335 C110.634468,321.916335 112.431648,320.129398 112.431648,317.925099 L112.431648,289.89803 C112.431648,287.692512 110.642352,285.906794 108.435142,285.906794 L90.5784168,285.906794 C88.3790911,285.906794 86.5819111,287.693731 86.5819111,289.89803 Z M130.203342,289.89803 L130.203342,317.925099 C130.203342,320.130617 131.992639,321.916335 134.199848,321.916335 L152.056574,321.916335 C154.255899,321.916335 156.053079,320.129398 156.053079,317.925099 L156.053079,289.89803 C156.053079,287.692512 154.263783,285.906794 152.056574,285.906794 L134.199848,285.906794 C132.000522,285.906794 130.203342,287.693731 130.203342,289.89803 Z M173.824774,289.89803 L173.824774,317.925099 C173.824774,320.130617 175.61407,321.916335 177.821279,321.916335 L195.678005,321.916335 C197.877331,321.916335 199.674511,320.129398 199.674511,317.925099 L199.674511,289.89803 C199.674511,287.692512 197.885214,285.906794 195.678005,285.906794 L177.821279,285.906794 C175.621954,285.906794 173.824774,287.693731 173.824774,289.89803 Z M217.446205,289.89803 L217.446205,317.925099 C217.446205,320.130617 219.235501,321.916335 221.442711,321.916335 L239.299436,321.916335 C241.498762,321.916335 243.295942,320.129398 243.295942,317.925099 L243.295942,289.89803 C243.295942,287.692512 241.506645,285.906794 239.299436,285.906794 L221.442711,285.906794 C219.243385,285.906794 217.446205,287.693731 217.446205,289.89803 Z M261.067636,289.89803 L261.067636,317.925099 C261.067636,320.130617 262.856933,321.916335 265.064142,321.916335 L282.920867,321.916335 C285.120193,321.916335 286.917373,320.129398 286.917373,317.925099 L286.917373,289.89803 C286.917373,287.692512 285.128077,285.906794 282.920867,285.906794 L265.064142,285.906794 C262.864816,285.906794 261.067636,287.693731 261.067636,289.89803 Z" id="Combined-Shape"></path>
                        </g>
                    </g>
                    <g id="Dates" transform="translate(63.963391, 123.547558)" fill="#FFCB3D" fill-rule="nonzero">
                        <rect id="Date" x="153.482814" y="82.4937951" width="25.8497371" height="32.9547478" rx="4"></rect>
                    </g>
                    <g id="Header" transform="translate(63.963391, 80.534704)" fill="#D8DEED" fill-rule="nonzero">
                        <path d="M3.97903932e-13,4.10445327 C3.97903932e-13,1.89837488 1.78381961,0.109994994 4.00700329,0.109994994 L241.565499,0.109994994 C243.778506,0.109994994 245.572502,1.90388466 245.572502,4.10445327 L245.572502,49.6905615 L3.97903932e-13,49.6905615 L3.97903932e-13,4.10445327 Z M84.3960369,16.6368505 C83.2914674,16.6368505 82.3960369,17.532281 82.3960369,18.6368505 L82.3960369,31.163706 C82.3960369,32.2682755 83.2914674,33.163706 84.3960369,33.163706 L161.176465,33.163706 C162.281035,33.163706 163.176465,32.2682755 163.176465,31.163706 L163.176465,18.6368505 C163.176465,17.532281 162.281035,16.6368505 161.176465,16.6368505 L84.3960369,16.6368505 Z" id="Combined-Shape"></path>
                    </g>
                </g>
            </g>
            <g id="UI-/-Charts-/-Chart-7-/-1" transform="translate(203.000000, 0.000000)">
                <g id="Browser" stroke-width="1" fill-rule="evenodd" fill="#F2F6FB">
                    <g id="Background" fill-rule="nonzero">
                        <rect x="0" y="0" width="391" height="294" rx="6"></rect>
                    </g>
                </g>
                <path d="M167.351085,120.92545 L223.648915,120.92545 L223.648915,141.859141 C223.648915,144.072247 221.855331,145.866324 219.645246,145.866324 L171.354754,145.866324 C169.143589,145.866324 167.351085,144.072638 167.351085,141.859141 L167.351085,120.92545 Z" id="Body" fill="#E1E5F0" fill-rule="nonzero"></path>
                <path d="M77.1203156,231.269923 L133.418146,231.269923 L133.418146,252.203614 C133.418146,254.41672 131.624562,256.210797 129.414477,256.210797 L81.1239847,256.210797 C78.9128193,256.210797 77.1203156,254.417111 77.1203156,252.203614 L77.1203156,231.269923 Z" id="Body" fill="#E1E5F0" fill-rule="nonzero"></path>
                <path d="M167.351085,231.269923 L223.648915,231.269923 L223.648915,252.203614 C223.648915,254.41672 221.855331,256.210797 219.645246,256.210797 L171.354754,256.210797 C169.143589,256.210797 167.351085,254.417111 167.351085,252.203614 L167.351085,231.269923 Z" id="Body" fill="#E1E5F0" fill-rule="nonzero"></path>
                <path d="M258.353057,231.269923 L314.650888,231.269923 L314.650888,252.203614 C314.650888,254.41672 312.857303,256.210797 310.647218,256.210797 L262.356726,256.210797 C260.145561,256.210797 258.353057,254.417111 258.353057,252.203614 L258.353057,231.269923 Z" id="Body" fill="#E1E5F0" fill-rule="nonzero"></path>
                <path d="M167.351085,78.8153055 C167.351085,76.6102073 169.144669,74.8226221 171.354754,74.8226221 L219.645246,74.8226221 C221.856411,74.8226221 223.648915,76.6132355 223.648915,78.8153055 L223.648915,125.9769 L167.351085,125.9769 L167.351085,78.8153055 Z M77.1203156,188.66217 C77.1203156,186.448444 78.9138999,184.653865 81.1239847,184.653865 L129.414477,184.653865 C131.625642,184.653865 133.418146,186.440606 133.418146,188.66217 L133.418146,236.560411 L77.1203156,236.560411 L77.1203156,188.66217 Z M167.351085,188.66217 C167.351085,186.448444 169.144669,184.653865 171.354754,184.653865 L219.645246,184.653865 C221.856411,184.653865 223.648915,186.440606 223.648915,188.66217 L223.648915,236.560411 L167.351085,236.560411 L167.351085,188.66217 Z M258.353057,188.66217 C258.353057,186.448444 260.146642,184.653865 262.356726,184.653865 L310.647218,184.653865 C312.858384,184.653865 314.650888,186.440606 314.650888,188.66217 L314.650888,236.560411 L258.353057,236.560411 L258.353057,188.66217 Z" id="Combined-Shape" fill="#474BFF" fill-rule="nonzero"></path>
                <g id="Lines" stroke-width="1" fill-rule="evenodd" transform="translate(102.180913, 145.605235)" fill="#E1E5F0">
                    <path d="M183.164255,39.5618602 L183.164255,36.4371701 L183.164255,24.175583 C183.164255,23.0805745 182.272396,22.1788268 181.172231,22.1788268 L7.77955291,22.1788268 C6.67880028,22.1788268 5.78752914,23.0755122 5.78752914,24.1816297 L5.78752914,39.5618602 L0.389107047,39.5618602 L0.389107047,21.8922079 C0.389107047,19.1286471 2.63347447,16.8883384 5.39803287,16.8883384 L183.553751,16.8883384 C186.320105,16.8883384 188.562677,19.1188907 188.562677,21.8890241 L188.562677,27.8562948 L188.562677,39.5618602 L183.164255,39.5618602 Z" id="Path" fill-rule="nonzero"></path>
                    <rect id="Line" fill-rule="nonzero" x="90.6198763" y="0.261089039" width="5.39842209" height="39.3007712"></rect>
                </g>
                <path d="M0,16.6272494 C0,7.44427311 7.44005167,0 16.6289044,0 L374.371096,0 C383.554986,0 391,7.44225402 391,16.6272494 L391,33.2544987 L0,33.2544987 L0,16.6272494 Z" id="Top-bar-Copy" fill="#E1E5F0" fill-rule="nonzero"></path>
                <ellipse id="Burron-Copy" fill="#FF5645" fill-rule="nonzero" cx="22.7504931" cy="17.0051414" rx="7.32642998" ry="7.17994859"></ellipse>
                <ellipse id="Burron-Copy-2" fill="#FFCB3D" fill-rule="nonzero" cx="46.6577909" cy="17.0051414" rx="7.32642998" ry="7.17994859"></ellipse>
                <ellipse id="Burron-Copy-3" fill="#3ABF7C" fill-rule="nonzero" cx="71.3362919" cy="17.0051414" rx="7.32642998" ry="7.17994859"></ellipse>
            </g>
            <g id="Interior-/-Chair-/-Chair-1" transform="translate(845.000000, 475.000000)" fill="#D8DEED">
                <g id="Chair-">
                    <path d="M294.7,293.613218 L294.7,293.8 C294.7,296.2 292.6,298.2 290.2,298.2 L214.698496,298.2 L241.3,347 C260.3,381.8 279.2,416.5 298.1,451.3 L329.4,508.7 C330.5,510.7 329.6,513.3 327.5,514.5 L327.1,514.7 C325,515.9 322.3,515.2 321.3,513.3 L204.2,298.2 L126.2,298.2 L9.1,513.3 C8.1,515.2 5.4,515.8 3.3,514.7 L2.9,514.5 C0.8,513.3 -0.1,510.7 1,508.7 L32.3,451.3 C51.3,416.5 70.2,381.8 89.1,347 L115.701504,298.2 L15.6,298.2 C13.1,298.2 11.1,296.2 11.1,293.8 L11.1,293.3 C11.1,290.9 13.2,288.9 15.6,288.9 L83.6,288.9 C127.9,288.9 172.3,288.9 216.7,288.9 L285.870787,288.9 L294.3,220.7 C300.1,174.3 305.8,127.8 311.6,81.3 L321.1,4.5 C321.4,1.8 323.7,-0.2 326.2,0.1 L326.7,0.2 C329.1,0.5 330.8,3 330.5,5.5 L294.8,293.1 C294.77408,293.274961 294.740601,293.446142 294.7,293.613218 Z" id="Combined-Shape" fill-rule="nonzero"></path>
                </g>
            </g>
            <g id="Characters-sitting-/-Woman-sitting/-10" transform="translate(617.000000, 235.000000)">
                <g id="Woman-2" transform="translate(10.000000, 49.000000)">
                    <g id="Legs" transform="translate(0.000000, 334.000000)" fill-rule="nonzero">
                        <path d="M4.5,364 L165.5,364 C167.985281,364 170,366.014719 170,368.5 C170,370.985281 167.985281,373 165.5,373 L4.5,373 C2.01471863,373 3.04359188e-16,370.985281 0,368.5 C-3.04359188e-16,366.014719 2.01471863,364 4.5,364 Z M345.966408,364.184836 L443.78366,291.260614 C444.492279,290.772907 445.197409,290.485169 445.997287,290.499131 C447.398819,290.42358 448.788134,291.047922 449.668799,292.163461 L449.960027,292.668621 C451.43013,294.394541 450.983069,297.087148 449.15891,298.455521 L349.642248,373.030074 L291.03023,373.20718 C288.73058,373.167039 286.862284,371.334154 286.80244,369.032759 L286.812911,368.43285 C286.953037,366.134946 288.785922,364.26665 291.085572,364.30679 L345.966408,364.184836 Z" id="Base" fill="#A339FF"></path>
                        <path d="M167.376014,364.854387 C166.804959,364.59212 166.169557,364.44589 165.5,364.44589 L4.5,364.44589 C4.17524651,364.44589 3.8585278,364.480291 3.55328917,364.545647 C3.60911416,363.965082 3.64269464,363.335861 3.8,362.706639 C5,357.906639 8.9,353.906639 11.1,351.906639 C15.7,349.006639 20.3,346.506639 25.1,344.206639 C42.9,335.606639 49,335.706639 60.7,327.906639 C65.5,324.606639 70,320.906639 74.1,316.806639 C76.8333333,314.073306 83.8,309.539973 95,303.206639 L182.6,303.206639 L167.376014,364.854387 Z M445.61814,290.961289 C444.97041,291.028828 444.378264,291.297268 443.78366,291.706504 L345.966408,364.630725 L291.085572,364.75268 C290.640875,364.744918 290.213633,364.80852 289.812711,364.932793 C289.683332,364.295941 289.613659,363.623454 289.625941,362.919833 C289.738142,362.221685 289.752104,361.421806 289.966036,360.625419 C291.249624,355.847093 295.1206,351.814036 297.35517,349.852736 C301.905097,347.031714 306.549772,344.512391 311.389182,342.296513 C320.902275,337.745735 327.113261,335.689856 332.588031,333.572356 C333.399176,332.181738 334.172491,330.752657 334.921241,329.20521 C335.856008,327.221222 336.794267,325.037264 337.737761,322.553352 C339.733459,317.087349 341.130995,311.51089 342.130337,305.827465 L346.996658,290.610077 L348.901098,284.642405 L409.889504,240 L445.61814,290.961289 Z" id="Shoes" fill="#474961"></path>
                        <path d="M227.082623,4.04819752 C237.07245,0.528561787 245.1,0.667768595 245.1,0.667768595 C290.1,0.567768595 453.4,0.267768595 456.2,0.467768595 C460.2,0.767768595 480.554013,-9.83102488e-14 492.7,21.8677686 C492.8,21.8677686 492.8,21.9677686 492.8,21.9677686 C494.6,25.3677686 496.5,29.5677686 498.2,34.7677686 C501.4,44.8677686 503.6,58.4677686 502.6,75.2677686 C502,81.9677686 501.1,96.5677686 492.6,110.567769 C483.8,125.167769 471.6,134.967769 453.5,141.167769 C438.1,146.367769 423,143.967769 404.4,142.267769 L404.2,142.267769 C403.5,142.167769 402.1,141.867769 400.4,141.567769 L397,140.967769 C395.1,140.567769 393.4,140.267769 392.6,140.167769 L392.4,140.167769 C375.2,137.067769 359.9,134.267769 344.6,131.367769 L343.9,131.267769 C342.670388,131.025082 341.440777,130.785013 340.210741,130.547138 C342.783361,134.117458 345.349569,137.712961 347.908904,141.333839 C354.508904,150.633839 360.908904,159.933839 367.108904,169.133839 L392.208904,204.633839 C396.008904,209.933839 394.308904,217.333839 388.408904,221.033839 L357.508904,240.233839 L329.508904,258.833839 L324.008904,262.333839 C318.508904,265.733839 311.83396,264.133864 307.608904,259.733839 C296.428045,248.089955 275.446429,220.724668 249.108904,190.933839 C248.072462,189.761502 247.041224,188.598193 246.015629,187.444314 C231.213257,215.035596 212.836732,251.039674 202.1,269.067769 C200,272.667769 195.9,274.567769 191.7,273.967769 L112.3,262.167769 C105.5,261.167769 101.5,253.867769 104.4,247.567769 C119.1,215.267769 137.8,164.367769 153.7,130.167769 C157.8,121.367769 161.7,112.667769 165.3,104.467769 C165.873278,103.168339 166.467124,101.814956 167.077599,100.417349 C161.105272,92.2214169 157.588808,86.3571982 154.508904,78.9338389 C151.008904,70.5338389 147.808904,62.8338389 148.008904,52.4338389 C148.308904,37.0338389 156.008904,19.5338389 171.408904,10.1338389 C180.008904,4.83383894 188.408904,4.53383894 193.408904,4.13383894 C200.108904,3.93383894 207.808904,4.03383894 216.408904,4.03383894 C220.89868,3.99792073 224.278955,3.9749037 227.082623,4.04819752 Z" fill="#3ABF7C"></path>
                        <path d="M225.614913,4.01896731 C213.918247,8.38083581 199.873482,17.8066087 192.856265,38.167277 C192.761895,38.3560159 177.26085,75.6810781 166.691194,99.8855912 C160.952442,91.965468 157.52179,86.195666 154.508904,78.9338389 C151.008904,70.5338389 147.808904,62.8338389 148.008904,52.4338389 C148.308904,37.0338389 156.008904,19.5338389 171.408904,10.1338389 C180.008904,4.83383894 188.408904,4.53383894 193.408904,4.13383894 C200.108904,3.93383894 207.808904,4.03383894 216.408904,4.03383894 C220.14275,4.00396817 223.10925,3.98302003 225.614909,4.01896915 Z M339.9472,130.181511 C342.608111,133.871957 345.262182,137.589329 347.908904,141.333839 C354.508904,150.633839 360.908904,159.933839 367.108904,169.133839 L392.208904,204.633839 C396.008904,209.933839 394.308904,217.333839 388.408904,221.033839 L357.508904,240.233839 L329.508904,258.833839 L324.008904,262.333839 C318.508904,265.733839 311.83396,264.133864 307.608904,259.733839 C296.428045,248.089955 275.446429,220.724668 249.108904,190.933839 C247.933995,189.604879 246.765771,188.287519 245.604876,186.982348 C249.264324,180.161865 252.70466,173.857124 255.756265,168.467277 C255.756265,168.467277 258.556265,163.467277 264.556265,153.967277 C269.456265,146.167277 274.556265,139.367277 278.856265,133.667277 C281.156265,130.567277 284.356265,126.267277 288.356265,121.267277 C292.856265,121.867277 297.356265,122.467277 301.856265,123.167277 C308.056265,124.267277 314.256265,125.467277 320.556265,126.567277 C327.071309,127.751831 333.514763,128.936384 339.9472,130.181511 Z" id="Shadow-Legs" fill="#444444" opacity="0.176985679"></path>
                        <path d="M269.300832,100.468877 C274.760047,107.733832 276.445628,109.773598 278.201324,111.490279 C279.820628,113.073598 281.426713,115.017165 286.800832,122.168877 C287.298501,122.831159 288.238827,122.964605 288.901109,122.466936 C289.563391,121.969268 289.696836,121.028942 289.199168,120.36666 C283.739953,113.101705 282.054372,111.061939 280.298676,109.345259 C278.679372,107.761939 277.073287,105.818372 271.699168,98.6666599 C271.201499,98.0043779 270.261173,97.8709323 269.598891,98.3686009 C268.936609,98.8662695 268.803164,99.8065952 269.300832,100.468877 Z" id="Shadow" fill="#482D1F"></path>
                    </g>
                    <g id="Body" transform="translate(95.000000, 0.000000)">
                        <path d="M281.121803,141.008917 C299.18952,135.827087 317.791502,140.361852 331.285284,151.574963 L332,152.05144 C334.06954,153.536835 336.364864,155.996558 338.762724,159.128159 C340.487794,161.248227 342.065023,163.511966 343.473848,165.908304 C354.255842,182.739901 365.481147,208.611324 367.005711,218.629883 C367.005711,221.589244 365.187944,224.124042 362.608052,225.178638 L377.967436,277.444518 C378.905438,280.535661 383,293.017324 384,312.008662 C384.666667,324.669554 378.335237,332.289721 365.005711,334.869162 C349.362987,334.707747 323.18986,335.000726 286.486328,335.748101 C249.782797,336.495475 227.854021,296.796588 220.7,216.65144 C212.800809,190.440487 225.206499,163.18206 248.803881,151.583674 L245.809991,142.888788 C245.450379,141.844397 246.005501,140.706227 247.049892,140.346614 L275.415449,130.57957 C276.45984,130.219957 277.59801,130.77508 277.957623,131.819471 L281.121803,141.008917 Z" id="Shirt" fill="#A339FF" fill-rule="nonzero"></path>
                        <path d="M266.557748,99.3128598 L274.978465,130.746904 L246.964974,140.392722 L244.903654,132.204471 C244.502556,132.413005 244.089652,132.626116 243.664609,132.843853 C235.666022,137.103267 236.131924,136.752646 235.556117,137.014267 C229.468327,139.363484 224.087456,139.828485 223.082481,139.833562 C214.66578,140.114888 203.32018,125.923082 196.634205,104.404073 C196.048245,102.655745 195.760642,100.876058 195.373586,99.1068246 L192.706909,81.3885054 C192.089891,77.4313235 192.467394,73.3696132 193.991136,69.6901825 C194.629961,68.1147769 195.279239,66.6388234 196.059327,65.4507737 C204.86041,50.6497284 224.017647,51.1499923 227.440833,51.1924043 C227.838642,51.1505929 228.246903,51.2082337 228.644712,51.1664224 C232.517971,51.6642839 235.826175,50.6127218 239.396001,50.1369671 C240.987237,49.9697216 242.416002,51.1267131 242.6827,52.7074952 L245.855889,78.1149915 C246.089436,79.699258 249.141298,78.2891827 255.011475,73.8847656 C262.286308,77.7119931 266.691168,81.1872755 268.226054,84.3106128 C270.769099,89.372522 269.742318,94.9101857 267.025149,98.7150506 C266.872397,98.9214045 266.716391,99.1205972 266.557748,99.3128598 Z M162.295344,291.645695 C176.317764,288.254873 192.00521,284.470548 209.357683,280.29272 L218.811951,216.897636 C218.943434,215.464811 219.14182,213.775738 219.453925,211.877225 C219.765826,213.313253 220.136889,214.74888 220.568601,216.181378 C229.747669,241.410435 238.280685,262.798893 246.167647,280.346753 C267.008263,277.324488 286.685177,275.025508 300.89758,271.835771 C300.917903,270.480003 299.507682,254.422111 296.666917,223.662094 L359.546237,225.846049 C359.620869,225.848631 359.695536,225.85004 359.770211,225.850267 C361.383703,236.12957 361.940351,248.769641 361.440154,263.770481 C360.488929,292.297589 363.589356,315.551385 346.070404,328.013637 C341.988814,330.924565 340.820329,332.913954 326.791016,334 C297.454402,336.269185 270.80947,335.607657 243.787003,334.42596 C253.00592,334.873901 262.167276,335.271515 271.407679,335.510929 C230.602237,337.448904 95.736023,339.083358 83.967341,338.690094 C70.0793849,338.226013 63.0616123,333.683878 60.2505441,327 C57.9934737,321.633363 71.673376,314.605888 73.7585249,313.521902 C74.1781709,313.303745 78.5903086,312.142023 86.9949381,310.036737 C80.7130858,309.007911 75.1706188,306.120338 75.5366011,299.094818 C75.5366011,299.094818 128.772316,290.908325 143.62425,288.81957 L143.283509,289.053438 C146.822467,288.595929 150.568337,288.544033 154.639189,289.309578 C156.893269,289.701199 159.445321,290.479904 162.295344,291.645695 Z M234.443402,592.182092 L262.065169,573.833347 L292.965169,554.633347 C294.630524,553.588972 295.961254,552.249807 296.928123,550.746288 L314.889504,574 L253.901098,618.642405 L234.443402,592.182092 Z M18.2876758,595.980006 L96.2562649,607.567277 C96.8428275,607.651072 97.4274398,607.686106 98.0049261,607.674558 L87.6,637.206639 L6.4659389e-13,637.206639 L18.2876758,595.980006 Z" id="Skin" fill="#F2A98A" fill-rule="nonzero"></path>
                        <path d="M246.321955,280.689769 C237.272306,282.002403 228.003718,283.451572 218.868262,285.169404 C196.935857,289.293576 180.14299,292.498246 168.48966,294.783415 C166.131902,293.565468 163.931775,292.552292 161.889278,291.74389 C176.014717,288.327979 191.837518,284.510922 209.357683,280.29272 L218.811951,216.897636 C218.943434,215.464811 219.14182,213.775738 219.453925,211.877225 C219.765826,213.313253 220.136889,214.74888 220.568601,216.181378 C229.807564,241.575058 238.392015,263.077855 246.321955,280.689769 Z M271.407679,335.510929 C230.602237,337.448904 95.736023,339.083358 83.967341,338.690094 C70.0793849,338.226013 63.0616123,333.683878 60.2505441,327 C57.9934737,321.633363 71.673376,314.605888 73.7585249,313.521902 C74.1810239,313.302262 78.6504852,312.126184 87.1669089,309.993667 C91.8888286,310.821406 97.0886842,310.521409 100.466095,310.14717 C109.81501,311.06874 119.067778,311.892012 128.416693,312.813582 C131.354557,313.973415 134.292422,315.133247 137.230286,316.29308 C142.093834,324.56468 179.761034,330.857486 194.388013,331.935081 C198.87383,332.251526 201.568243,332.483196 207.742008,332.681609 C229.635128,333.593681 250.315474,334.964442 271.407679,335.510929 Z" id="Shadow-Arm" fill="#8C2A00" fill-rule="nonzero" opacity="0.2"></path>
                        <path d="M199.456202,99.6832326 C199.832805,101.353014 200.423841,104.106317 199.554753,105.404272 C198.450026,107.330298 194.886177,103.079536 195.247852,99.8238956 C195.399868,98.4002064 196.054222,97.9292277 196.84984,97.845605 C198.043266,97.7201708 199.131864,98.510712 199.456202,99.6832326 Z M217.095975,97.2259128 C217.57203,98.8852415 218.063614,101.648997 217.194526,102.946952 C216.089799,104.872978 212.52595,100.622216 212.887624,97.3665758 C213.039641,95.9428866 213.693995,95.4719079 214.489612,95.3882852 C215.683039,95.262851 216.771636,96.0533923 217.095975,97.2259128 Z" id="Eyes" fill="#482D1F" fill-rule="nonzero"></path>
                        <path d="M214.124855,118.045723 C214.824855,117.845723 216.524855,117.245723 216.824855,116.145723 C216.824855,115.945723 216.924855,115.645723 216.824855,115.445723 C216.424855,114.845723 215.124855,115.145723 213.324855,115.345723 C210.124855,115.645723 207.524855,115.345723 207.524855,115.345723 C207.524855,115.345723 208.324855,117.345723 208.824855,117.845723 C209.824855,119.445723 213.024855,118.345723 214.124855,118.045723 Z" id="Mouth" fill="#482D1F" fill-rule="nonzero" transform="translate(212.197077, 116.892489) rotate(-6.000000) translate(-212.197077, -116.892489) "></path>
                        <path d="M191.192419,92.8093775 C190.176991,92.7150016 189.653748,91.5633867 190.276744,90.7940514 C191.088191,89.9043583 192.475445,88.7530437 194.454036,88.4445346 C198.51067,87.8170635 203.236887,89.733538 199.00733,91.5857939 C196.327197,92.8729955 193.113369,92.90913 191.192419,92.8093775 Z M220.045994,50.9020696 C212.274026,46.7466767 206.818646,39.6241074 205.920652,31.0802593 C204.361956,16.2502589 217.124156,2.75400006 234.425823,0.935521563 C251.72749,-0.882956937 267.016835,9.66496569 268.575531,24.4949661 C269.517023,33.4526651 265.233582,41.9237526 257.880806,47.6286424 C262.180315,47.1915319 265.601493,47.2869903 269.618714,48.770347 C271.084215,49.3201724 274.543835,50.6659157 277.793798,53.8436098 C287.062256,62.622886 286.719986,75.6299168 286.719385,79.4509114 C286.319775,90.9557065 281.026702,98.9527922 278.922076,101.88887 C274.021736,108.839169 269.502137,112.586011 265.363281,113.129395 C262.964779,109.663282 261.074337,106.356055 259.691956,103.207714 C261.429141,102.429762 263.860474,100.991112 265.680007,98.3536767 C268.297723,94.5592646 269.334957,89.121053 266.812818,84.2580483 C264.510489,79.5730423 259.140671,76.3165014 254.408778,77.2160468 C251.744474,77.697178 249.812771,79.4084706 249.53532,79.6387335 C247.148311,81.8761084 245.701701,84.7514083 245.199852,85.8591961 C245.205299,85.7135451 245.210737,85.567776 245.216164,85.421889 C240.453212,84.1125805 232.586636,81.0179086 225.704731,73.8982615 C223.344461,71.5320143 221.470999,69.0140507 220.026704,66.7526323 C216.174051,68.3641725 209.835093,70.2370338 202.229839,69.6286666 C199.532221,69.4167632 197.129556,68.2950606 194.981546,67.7111341 C194.967754,67.6912764 194.960815,67.6811523 194.960815,67.6811523 C194.830005,67.3932486 196.080233,65.6496781 196.059327,65.4507737 C201.954495,55.2827704 212.977121,51.9571761 220.045994,50.9020684 Z M210.486143,90.7815253 C209.470716,90.6871494 208.947473,89.5355345 209.669921,88.7557464 C210.481367,87.8660533 211.868622,86.7147387 213.946665,86.3957767 C218.003299,85.7683056 222.739969,87.7842323 218.499959,89.537036 C215.720374,90.8346904 212.506546,90.870825 210.486143,90.7815253 Z" id="Hair" fill="#DE6903" fill-rule="nonzero"></path>
                        <polygon id="Shadow" fill="#482D1F" fill-rule="nonzero" transform="translate(250.335938, 132.414322) rotate(-6.000000) translate(-250.335938, -132.414322) " points="245.815242 137.742683 255.723442 127.08596 244.948434 131.618927"></polygon>
                        <path d="M300.434055,273.389139 C299.666855,273.076576 299.298298,272.201255 299.610861,271.434055 C299.923424,270.666855 300.798745,270.298298 301.565945,270.610861 L315.065945,276.110861 C315.833145,276.423424 316.201702,277.298745 315.889139,278.065945 C315.576576,278.833145 314.701255,279.201702 313.934055,278.889139 L300.434055,273.389139 Z M297.767048,221.87285 C298.22387,222.56394 298.033958,223.494507 297.342868,223.951329 C296.651779,224.408151 295.721212,224.218239 295.26439,223.52715 C287.275666,211.441644 283.210396,197.43613 283.516054,182.968317 C283.533552,182.140075 284.21916,181.482837 285.047402,181.499993 C285.875644,181.517833 286.532882,182.203441 286.515384,183.031683 C286.222631,196.888696 290.114037,210.295219 297.767048,221.87285 Z" id="Shadow" fill="#482D1F" fill-rule="nonzero"></path>
                        <path d="" id="Path-2" stroke="#979797"></path>
                        <path d="M205.02116,99.669972 L205.026816,99.5246423 L205.01869,99.597101 L205.02116,99.669972 Z M203.826816,110.224642 L203.820586,110.336093 C203.820586,111.427447 204.567436,112.441029 205.656187,112.622487 C205.855967,112.641769 205.967532,112.649689 206.079281,112.656958 C207.136918,112.725762 207.896152,112.736093 210.620586,112.736093 C211.172871,112.736093 211.620586,112.288378 211.620586,111.736093 C211.620586,111.183808 211.172871,110.736093 210.620586,110.736093 C207.944325,110.736093 207.20635,110.726051 206.209114,110.661177 C206.105223,110.654419 206.001511,110.647056 205.897283,110.639039 C205.919768,110.639148 205.836056,110.523092 205.822434,110.375516 L207.014356,99.747544 L207.020012,99.6022143 L206.820012,93.7022143 C206.801301,93.1502466 206.338675,92.7179564 205.786707,92.7366672 C205.234739,92.755378 204.802449,93.2180043 204.82116,93.769972 L205.01869,99.597101 L203.826816,110.224642 Z" id="Nose" fill="#482D1F" fill-rule="nonzero" transform="translate(207.720586, 102.736088) rotate(-6.000000) translate(-207.720586, -102.736088) "></path>
                    </g>
                </g>
            </g>
            <g id="Active-objects-/-Devices-/-Laptop" transform="translate(650.000000, 345.000000)" fill="#474961">
                <g id="Laptop-2" transform="translate(177.000000, 192.500000) scale(-1, 1) translate(-177.000000, -192.500000) translate(74.000000, 119.000000)">
                    <path d="M154.451704,143.509238 C153.455365,145.2701 151.565004,146.46022 149.4,146.46022 L5.7,146.46022 C2.5,146.46022 -5.68434189e-14,143.86022 -5.68434189e-14,140.66022 C-5.68434189e-14,137.46022 2.6,134.86022 5.7,134.86022 L145.475148,134.86022 L194.2,3.76021996 C195.3,0.760219964 198.6,-0.739780036 201.6,0.360219964 C204.6,1.46021996 206.1,4.76021996 205,7.76021996 L154.9,142.56022 C154.776937,142.895847 154.626338,143.2127 154.451704,143.509238 Z" id="Laptop" fill-rule="nonzero"></path>
                </g>
            </g>
            <g id="Interior-/-Table-/-Table-6" transform="translate(99.000000, 610.000000)" fill="#D8DEED" fill-rule="nonzero">
                <rect id="Rectangle" x="0" y="0" width="1022" height="14" rx="7"></rect>
            </g>
            <g id="Active-objects-/-Tableware-/-Glass" transform="translate(473.000000, 344.000000)">
                <g id="Water" transform="translate(62.000000, 101.000000)">
                    <path d="M66,134.125918 C40.4576333,131.734116 22.5147237,95.2504156 31.5200716,63.8250527 C36.5425779,46.298347 48.1445878,31.9509534 66,20.8343602 L66,8 C66,3.581722 69.581722,8.11624501e-16 74,0 L131,0 L144,0 L132.821223,62.6690593 C139.735274,69.7063592 144,79.3551395 144,90 L144,164 L66,164 L66,134.125918 Z M66,118.962259 L66,114 L66,39.1243938 C55.7473727,47.26956 49.1163887,56.871682 45.9396935,67.9571836 C42.5253835,79.8718738 44.0476956,93.1236896 49.5423387,103.797879 C53.8978999,112.259226 60.0379685,117.690234 66,118.962259 Z" id="Glass" fill="#E1E5F0" fill-rule="nonzero"></path>
                    <path d="M156,96 L197,96 L197,144.5 C197,155.821837 187.821837,165 176.5,165 C165.178163,165 156,155.821837 156,144.5 L156,96 Z M0,96 L41,96 L41,144.5 C41,155.821837 31.8218374,165 20.5,165 C9.17816263,165 1.38652519e-15,155.821837 0,144.5 L0,96 Z" id="Glass" fill="#F2F6FB" fill-rule="nonzero"></path>
                    <path d="M156,123 L197,123 L197,144.5 C197,155.821837 187.821837,165 176.5,165 C165.178163,165 156,155.821837 156,144.5 L156,123 Z M0,140 L41,140 L41,144.5 C41,155.821837 31.8218374,165 20.5,165 C9.17816263,165 1.38652519e-15,155.821837 0,144.5 L0,140 Z M66,90 L144,90 L144,165 L66,165 L66,90 Z" fill="#474BFF" fill-rule="nonzero"></path>
                </g>
            </g>
        </g>
    </g>
</svg>