<?xml version="1.0" encoding="UTF-8"?>
<svg width="1700px" height="1200px" viewBox="0 0 1700 1200" version="1.1" xmlns="http://www.w3.org/2000/svg" xmlns:xlink="http://www.w3.org/1999/xlink">
    <!-- Generator: Sketch 56.1 (81669) - https://sketch.com -->
    <title>Online shopping</title>
    <desc>Created with Sketch.</desc>
    <defs>
        <path d="M61.3384829,53.0190773 L66.5577317,17.3029514 C71.9664601,5.76765046 92.6425554,1.98951966e-13 128.586018,1.98951966e-13 C164.52948,1.98951966e-13 186.26927,5.76765046 193.805388,17.3029514 C196.72864,30.48303 198.586572,41.8308423 199.379184,51.3463881 C285.405851,66.6067583 278.782309,98.1972012 176.612628,107.476313 C73.4512355,116.845492 5.45353561,98.1071333 0.37267513,84.3308552 C-3.01456519,75.1466698 16.6881381,64.9308855 59.4807851,53.6835022 C60.0952333,53.4580949 60.7144578,53.2366228 61.3384585,53.0190858 Z" id="path-1"></path>
    </defs>
    <g id="Online-shopping" stroke="none" stroke-width="1" fill="none" fill-rule="evenodd">
        <g id="Group" transform="translate(231.000000, 202.000000)">
            <g id="UI-/-E-commerce-/-Product-/-1" transform="translate(696.000000, 80.000000)">
                <g id="Browser" transform="translate(0.548411, 0.000000)">
                    <rect id="Background" fill="#F2F6FB" fill-rule="nonzero" x="0" y="0" width="553" height="621" rx="6"></rect>
                    <path d="M-1.70530257e-13,6.00828038 C-1.70530257e-13,2.68999875 2.68281967,0 5.99861312,0 L547.001387,0 C550.314329,0 553,2.68062794 553,6.00828038 L553,39 L-1.70530257e-13,39 L-1.70530257e-13,6.00828038 Z" id="Top-bar" fill="#E1E5F0" fill-rule="nonzero"></path>
                    <circle id="Burron" fill="#FF5645" fill-rule="nonzero" cx="31" cy="21" r="8"></circle>
                    <circle id="Burron" fill="#FFCB3D" fill-rule="nonzero" cx="58" cy="21" r="8"></circle>
                    <circle id="Burron" fill="#3ABF7C" fill-rule="nonzero" cx="84" cy="21" r="8"></circle>
                </g>
                <g id="Product" transform="translate(70.000000, 76.000000)">
                    <path d="M0.14841056,4.50661991 C0.14841056,2.30219278 1.93034242,0.515151515 4.15406654,0.515151515 L405.865482,0.515151515 C408.077745,0.515151515 409.871138,2.30892297 409.871138,4.50661991 L409.871138,195.220653 C409.871138,197.42508 408.089206,199.212121 405.865482,199.212121 L4.15406654,199.212121 C1.94180383,199.212121 0.14841056,197.41835 0.14841056,195.220653 L0.14841056,4.50661991 Z M10.2090166,211.787879 L241.451441,211.787879 C247.00776,211.787879 251.512047,216.292166 251.512047,221.848485 C251.512047,227.404804 247.00776,231.909091 241.451441,231.909091 L10.2090166,231.909091 C4.65269732,231.909091 0.14841056,227.404804 0.14841056,221.848485 C0.14841056,216.292166 4.65269732,211.787879 10.2090166,211.787879 Z M10.2090166,244.484848 L216.315077,244.484848 C221.871397,244.484848 226.375683,248.989135 226.375683,254.545455 C226.375683,260.101774 221.871397,264.606061 216.315077,264.606061 L10.2090166,264.606061 C4.65269732,264.606061 0.14841056,260.101774 0.14841056,254.545455 C0.14841056,248.989135 4.65269732,244.484848 10.2090166,244.484848 Z M10.2090166,277.181818 L191.178714,277.181818 C196.735033,277.181818 201.23932,281.686105 201.23932,287.242424 C201.23932,292.798744 196.735033,297.30303 191.178714,297.30303 L10.2090166,297.30303 C4.65269732,297.30303 0.14841056,292.798744 0.14841056,287.242424 C0.14841056,281.686105 4.65269732,277.181818 10.2090166,277.181818 Z M3.54841056,346.993686 C3.54841056,344.788034 5.33129625,343 7.5420966,343 L117.554725,343 C119.760376,343 121.548411,344.782886 121.548411,346.993686 L121.548411,457.006314 C121.548411,459.211966 119.765525,461 117.554725,461 L7.5420966,461 C5.3364447,461 3.54841056,459.217114 3.54841056,457.006314 L3.54841056,346.993686 Z M141.548411,346.993686 C141.548411,344.788034 143.331296,343 145.542097,343 L255.554725,343 C257.760376,343 259.548411,344.782886 259.548411,346.993686 L259.548411,457.006314 C259.548411,459.211966 257.765525,461 255.554725,461 L145.542097,461 C143.336445,461 141.548411,459.217114 141.548411,457.006314 L141.548411,346.993686 Z M280.548411,346.993686 C280.548411,344.788034 282.331296,343 284.542097,343 L394.554725,343 C396.760376,343 398.548411,344.782886 398.548411,346.993686 L398.548411,457.006314 C398.548411,459.211966 396.765525,461 394.554725,461 L284.542097,461 C282.336445,461 280.548411,459.217114 280.548411,457.006314 L280.548411,346.993686 Z" id="Combined-Shape" fill="#E1E5F0" fill-rule="nonzero"></path>
                    <path d="M302.088935,211.787879 L391.971522,211.787879 C397.062485,211.787879 399.753036,212.484071 402.197481,213.791374 C404.641925,215.098677 406.560339,217.017092 407.867643,219.461536 C409.174946,221.90598 409.871138,224.596532 409.871138,229.687495 L409.871138,234.130687 C409.871138,239.22165 409.174946,241.912201 407.867643,244.356646 C406.560339,246.80109 404.641925,248.719505 402.197481,250.026808 C399.753036,251.334111 397.062485,252.030303 391.971522,252.030303 L302.088935,252.030303 C296.997973,252.030303 294.307421,251.334111 291.862977,250.026808 C289.418532,248.719505 287.500118,246.80109 286.192815,244.356646 C284.885512,241.912201 284.18932,239.22165 284.18932,234.130687 L284.18932,229.687495 C284.18932,224.596532 284.885512,221.90598 286.192815,219.461536 C287.500118,217.017092 289.418532,215.098677 291.862977,213.791374 C294.307421,212.484071 296.997973,211.787879 302.088935,211.787879 Z" id="Button" fill="#474BFF" fill-rule="nonzero"></path>
                    <rect id="Rectangle" fill="#D8DEED" fill-rule="nonzero" x="141.548411" y="471" width="102" height="16" rx="8"></rect>
                    <rect id="Rectangle" fill="#D8DEED" fill-rule="nonzero" x="141.548411" y="498" width="61" height="16" rx="8"></rect>
                    <rect id="Rectangle" fill="#D8DEED" fill-rule="nonzero" x="3.54841056" y="471" width="102" height="16" rx="8"></rect>
                    <rect id="Rectangle" fill="#D8DEED" fill-rule="nonzero" x="3.54841056" y="498" width="61" height="16" rx="8"></rect>
                    <path d="M288.548411,471 L373.548411,471 C377.966689,471 381.548411,474.581722 381.548411,479 C381.548411,483.418278 377.966689,487 373.548411,487 L288.548411,487 C284.130133,487 280.548411,483.418278 280.548411,479 C280.548411,474.581722 284.130133,471 288.548411,471 Z M288.548411,498 L333.548411,498 C337.966689,498 341.548411,501.581722 341.548411,506 C341.548411,510.418278 337.966689,514 333.548411,514 L288.548411,514 C284.130133,514 280.548411,510.418278 280.548411,506 C280.548411,501.581722 284.130133,498 288.548411,498 Z" id="Text" fill="#D8DEED" fill-rule="nonzero"></path>
                    <g id="Hat" transform="translate(79.548411, 42.000000)">
                        <g id="Combined-Shape" transform="translate(0.000000, -0.000000)">
                            <mask id="mask-2" fill="white">
                                <use xlink:href="#path-1"></use>
                            </mask>
                            <use id="Mask" fill="#FFCB3D" fill-rule="nonzero" xlink:href="#path-1"></use>
                            <path d="M60.9336937,47.7375693 L64.8052012,30 C88.5918597,33.1735599 111.025929,34.9207607 132.107408,35.2416022 C153.188887,35.5624438 174.770056,34.4851162 196.850914,32.0096195 L200.74114,51.1572266 L199.078336,51.1428746 C195.440298,56.6809624 165.655651,61 129.451589,61 C90.791657,61 59.4515894,56.0751322 59.4515894,50 C59.4515894,49.2244956 59.962279,48.4677348 60.9336937,47.7375693 Z" fill="#444444" fill-rule="nonzero" opacity="0.176985679" mask="url(#mask-2)"></path>
                        </g>
                    </g>
                </g>
            </g>
            <g id="UI-/-E-commerce-/-Card" transform="translate(0.000000, 100.000000)">
                <g id="Card">
                    <rect fill="#F2F6FB" fill-rule="nonzero" x="0" y="0" width="278" height="173.11828" rx="7.99999952"></rect>
                    <rect id="Line" fill="#D8DEED" fill-rule="nonzero" x="0" y="25.4032258" width="278" height="36.6935484"></rect>
                    <rect id="Input-Field" fill="#E1E5F0" fill-rule="nonzero" x="18.8474576" y="120.430108" width="127.220339" height="32.9301075" rx="16.4650538"></rect>
                    <rect id="Input-Field" fill="#E1E5F0" fill-rule="nonzero" x="207.322034" y="120.430108" width="50.8881356" height="32.9301075" rx="16.4650538"></rect>
                    <rect id="Input-Field" fill="#E1E5F0" fill-rule="nonzero" x="18.8474576" y="74.327957" width="239.362712" height="32.9301075" rx="16.4650538"></rect>
                </g>
            </g>
            <g id="Browser-Header" transform="translate(697.000000, 80.000000)"></g>
            <g id="eCommerces" transform="translate(768.000000, 157.000000)">
                <g></g>
            </g>
            <g id="Text" transform="translate(766.600000, 367.787879)"></g>
            <g id="Button" transform="translate(1050.640909, 367.787879)">
                <g></g>
            </g>
            <g id="eCommerces" transform="translate(770.000000, 499.000000)">
                <g></g>
            </g>
            <g id="eCommerces" transform="translate(908.000000, 499.000000)">
                <g></g>
            </g>
            <g id="eCommerces" transform="translate(1047.000000, 499.000000)">
                <g></g>
            </g>
            <g id="Background" transform="translate(17.000000, 411.000000)">
                <g id="UI-/-E-commerce-/-E-commerce-1-/-1">
                    <g id="Group" stroke-width="1" fill-rule="evenodd" transform="translate(0.000000, 32.493573)">
                        <g id="Browser" fill="#F2F6FB" fill-rule="nonzero">
                            <path d="M6,-2.84217094e-13 L415,-2.84217094e-13 C418.313708,-2.84825813e-13 421,2.6862915 421,6 L421,277.506427 C421,280.820135 418.313708,283.506427 415,283.506427 L6,283.506427 C2.6862915,283.506427 4.05812251e-16,280.820135 0,277.506427 L0,6 C-4.05812251e-16,2.6862915 2.6862915,-2.83608376e-13 6,-2.84217094e-13 Z" id="Background"></path>
                        </g>
                        <g id="Product" transform="translate(65.705202, 43.866324)" fill-rule="nonzero">
                            <path d="M104.132135,25.6576612 L184.784185,25.6576612 C188.982803,25.6576612 192.386455,29.0613134 192.386455,33.2599311 C192.386455,37.4585489 188.982803,40.8622011 184.784185,40.8622011 L104.132135,40.8622011 C99.9335173,40.8622011 96.5298651,37.4585489 96.5298651,33.2599311 C96.5298651,29.0613134 99.9335173,25.6576612 104.132135,25.6576612 Z M57.1535197,-3.60600438e-13 L231.7628,-3.60600438e-13 C236.223831,-3.47209062e-13 239.840212,3.61638046 239.840212,8.07741184 C239.840212,12.5384432 236.223831,16.1548237 231.7628,16.1548237 L57.1535197,16.1548237 C52.6924884,16.1548237 49.0761079,12.5384432 49.0761079,8.07741184 C49.0761079,3.61638046 52.6924884,-3.5978096e-13 57.1535197,-3.60600438e-13 Z" id="Combined-Shape" fill="#E1E5F0"></path>
                            <path d="M25.8237471,114.878074 L11.8273799,122.289418 C10.3598345,123.066511 9.39634165,122.368192 9.67412196,120.736939 L12.3507071,105.018807 L1.0125104,93.8871642 C-0.166530967,92.7296021 0.201793656,91.5974194 1.84853622,91.3564096 L17.4969505,89.0661783 L24.5043414,74.7653495 C25.2330291,73.2782286 26.4159145,73.2811865 27.1431528,74.7653495 L34.1505438,89.0661783 L49.798958,91.3564096 C51.4397237,91.5965447 51.8116801,92.7319044 50.6349838,93.8871642 L39.2967871,105.018807 L41.9733723,120.736939 C42.2517062,122.371443 41.2930057,123.069342 39.8201143,122.289418 L25.8237471,114.878074 Z M84.6664061,115.828358 L70.6700389,123.239702 C69.2024934,124.016795 68.2390006,123.318476 68.5167809,121.687223 L71.1933661,105.969091 L59.8551694,94.837448 C58.676128,93.6798859 59.0444526,92.5477031 60.6911952,92.3066933 L76.3396094,90.016462 L83.3470004,75.7156332 C84.075688,74.2285124 85.2585734,74.2314702 85.9858118,75.7156332 L92.9932027,90.016462 L108.641617,92.3066933 C110.282383,92.5468284 110.654339,93.6821882 109.477643,94.837448 L98.1394461,105.969091 L100.816031,121.687223 C101.094365,123.321727 100.135665,124.019626 98.6627733,123.239702 L84.6664061,115.828358 Z M144.45814,115.828358 L130.461773,123.239702 C128.994228,124.016795 128.030735,123.318476 128.308515,121.687223 L130.9851,105.969091 L119.646903,94.837448 C118.467862,93.6798859 118.836187,92.5477031 120.482929,92.3066933 L136.131344,90.016462 L143.138735,75.7156332 C143.867422,74.2285124 145.050308,74.2314702 145.777546,75.7156332 L152.784937,90.016462 L168.433351,92.3066933 C170.074117,92.5468284 170.446073,93.6821882 169.269377,94.837448 L157.93118,105.969091 L160.607765,121.687223 C160.886099,123.321727 159.927399,124.019626 158.454507,123.239702 L144.45814,115.828358 Z M203.300799,115.828358 L189.304432,123.239702 C187.836886,124.016795 186.873394,123.318476 187.151174,121.687223 L189.827759,105.969091 L178.489562,94.837448 C177.310521,93.6798859 177.678846,92.5477031 179.325588,92.3066933 L194.974003,90.016462 L201.981393,75.7156332 C202.710081,74.2285124 203.892967,74.2314702 204.620205,75.7156332 L211.627596,90.016462 L227.27601,92.3066933 C228.916776,92.5468284 229.288732,93.6821882 228.112036,94.837448 L216.773839,105.969091 L219.450424,121.687223 C219.728758,123.321727 218.770058,124.019626 217.297166,123.239702 L203.300799,115.828358 Z" id="Stars" fill="#474BFF"></path>
                            <path d="M261.66892,115.828358 L247.351265,123.264032 C245.880819,124.027688 244.919409,123.318476 245.202636,121.687223 L247.931703,105.969091 L236.356038,94.8228591 C235.162245,93.6733542 235.52943,92.5498772 237.160793,92.3157097 L253.178853,90.016462 L260.328329,75.706256 C261.068717,74.2243141 262.265925,74.2179126 263.009512,75.706256 L270.158987,90.016462 L286.177047,92.3157097 C287.815294,92.5508652 288.17738,93.6716351 286.981803,94.8228591 L275.406137,105.969091 L278.135205,121.687223 C278.418996,123.321727 277.455044,124.026661 275.986575,123.264032 L261.66892,115.828358 Z" id="Star" fill="#E1E5F0"></path>
                            <path d="M111.734405,171.051074 L177.181915,171.051074 C180.031973,171.051074 182.671385,171.790448 184.92391,173.092954 C187.176434,174.395459 189.04207,176.261095 190.344575,178.51362 C191.647081,180.766144 192.386455,183.405557 192.386455,186.255614 C192.386455,189.105672 191.647081,191.745085 190.344575,193.997609 C189.04207,196.250133 187.176434,198.11577 184.92391,199.418275 C182.671385,200.72078 180.031973,201.460154 177.181915,201.460154 L111.734405,201.460154 C108.884347,201.460154 106.244935,200.72078 103.99241,199.418275 C101.739886,198.11577 99.8742496,196.250133 98.5717444,193.997609 C97.2692392,191.745085 96.5298651,189.105672 96.5298651,186.255614 C96.5298651,183.405557 97.2692392,180.766144 98.5717444,178.51362 C99.8742496,176.261095 101.739886,174.395459 103.99241,173.092954 C106.244935,171.790448 108.884347,171.051074 111.734405,171.051074 Z" id="Button" fill="#D8DEED"></path>
                        </g>
                    </g>
                    <path d="M0,17.8714653 C0,8.00132756 8.01089963,0 17.8712232,0 L403.128777,0 C412.998781,0 421,7.99915738 421,17.8714653 L421,35.7429306 L0,35.7429306 L0,17.8714653 Z" id="Top-bar-Copy" fill="#E1E5F0" fill-rule="nonzero"></path>
                    <ellipse id="Burron-Copy" fill="#FF5645" fill-rule="nonzero" cx="23.9296724" cy="18.277635" rx="7.7061657" ry="7.71722365"></ellipse>
                    <ellipse id="Burron-Copy-2" fill="#FFCB3D" fill-rule="nonzero" cx="49.0761079" cy="18.277635" rx="7.7061657" ry="7.71722365"></ellipse>
                    <ellipse id="Burron-Copy-3" fill="#3ABF7C" fill-rule="nonzero" cx="75.0337187" cy="18.277635" rx="7.7061657" ry="7.71722365"></ellipse>
                </g>
            </g>
            <g id="Text" transform="translate(126.363636, 440.909091)"></g>
            <g id="Rate" transform="translate(76.545455, 519.545455)"></g>
            <g id="Button" transform="translate(176.181818, 620.181818)">
                <g></g>
            </g>
            <g id="UI-/-Icons-/-Online-shopping" transform="translate(898.000000, 0.000000)">
                <g id="Bag">
                    <circle id="Oval" fill="#FF5645" fill-rule="nonzero" cx="75.5" cy="75.5" r="75.5"></circle>
                    <g id="Group-7" transform="translate(31.458333, 24.859756)" fill="#FFFFFF" fill-rule="nonzero">
                        <path d="M77.3667841,77.209331 C78.543482,78.7672871 79.2435853,80.7197054 79.2435853,82.8400388 C79.2435853,87.9428703 75.1887212,92.0731707 70.1944059,92.0731707 C65.2000906,92.0731707 61.1452265,87.9428703 61.1452265,82.8400388 C61.1452265,81.361771 61.4855251,79.9651214 62.0903793,78.7268627 L34.6232742,78.7268635 C35.228125,79.9651214 35.5684235,81.361771 35.5684235,82.8400388 C35.5684235,87.9428703 31.5135594,92.0731707 26.5192441,92.0731707 C21.5249288,92.0731707 17.4700647,87.9428703 17.4700647,82.8400388 C17.4700647,79.4831544 19.2248606,76.5471457 21.8475188,74.9310046 L10.4148288,23.3194666 L2.69642857,23.3194666 C1.20723219,23.3194666 8.77520279e-13,22.0827897 8.77520279e-13,20.5572715 C8.77520279e-13,19.0317532 1.20723219,17.7950764 2.69642857,17.7950764 L14.7210548,17.7950764 L18.5122409,34.9099412 C18.8408928,34.7421746 19.1914705,34.6052101 19.5613073,34.5037309 C20.0346954,34.3738384 20.523364,34.3080123 21.0142493,34.3080123 L77.7962948,34.3080123 C80.8288402,34.3080123 83.2872039,36.766376 83.2872039,39.7989214 C83.2872039,40.1588875 83.2518068,40.5179814 83.1815236,40.8710195 L78.4434958,64.6704869 C77.9320908,67.2393122 75.6775033,69.0892979 73.0582671,69.0892979 L27.5445612,69.0892979 C27.0247568,69.0892979 26.5184338,69.0162601 26.0368136,68.8787415 L26.9945817,73.2024732 L74.958969,73.2024732 C76.4481654,73.2024732 77.6553976,74.4391501 77.6553976,75.9646683 C77.6553976,76.4124287 77.5513942,76.8353054 77.3667841,77.209331 Z M22.814376,41.1716487 L27.2186381,62.2256616 L71.9318855,62.2256616 L76.1233447,41.1716487 L22.814376,41.1716487 Z M26.5192441,86.5487805 C28.5419836,86.5487805 30.1755663,84.8848067 30.1755663,82.8400388 C30.1755663,80.7952708 28.5419836,79.131297 26.5192441,79.131297 C24.4965046,79.131297 22.8629219,80.7952708 22.8629219,82.8400388 C22.8629219,84.8848067 24.4965046,86.5487805 26.5192441,86.5487805 Z M70.1944059,86.5487805 C72.2171454,86.5487805 73.8507282,84.8848067 73.8507282,82.8400388 C73.8507282,80.7952708 72.2171454,79.131297 70.1944059,79.131297 C68.1716664,79.131297 66.5380837,80.7952708 66.5380837,82.8400388 C66.5380837,84.8848067 68.1716664,86.5487805 70.1944059,86.5487805 Z M46.8515372,16.9715887 L46.8515372,3.05641165 C46.8515372,1.5308934 48.0587694,0.294216524 49.5479658,0.294216524 C51.0371622,0.294216524 52.2443944,1.5308934 52.2443944,3.05641165 L52.2443944,16.9715887 L54.4762067,13.6617616 C55.3225774,12.4065752 57.0019991,12.0918992 58.2273001,12.958913 C59.4526011,13.8259268 59.7597848,15.5463101 58.9134142,16.8014965 L51.8018221,27.3481449 C51.7023067,27.5033541 51.5865169,27.6496089 51.4549603,27.7840644 C51.4496223,27.7895452 51.4442652,27.7949994 51.4388892,27.8004268 C51.3298903,27.9098894 51.2103303,28.0113753 51.0804554,28.1032738 C50.9533322,28.1932253 50.8213208,28.2704573 50.6858589,28.3352392 C50.3291014,28.5049003 49.9400563,28.5926484 49.5479658,28.5930041 C49.537479,28.5929946 49.5269944,28.5929226 49.5165125,28.5927881 C49.141235,28.5887112 48.7638838,28.5044422 48.4100727,28.3352392 C48.1288727,28.2015105 47.8677322,28.0168912 47.6409712,27.7840644 C47.6370241,27.7800302 47.6330911,27.7759855 47.6291723,27.7719302 C47.6265996,27.7691994 47.6240057,27.7664915 47.6214164,27.7637773 C47.4978814,27.6349674 47.3886512,27.4955971 47.2941095,27.3481449 L40.1825174,16.8014965 C39.3361467,15.5463101 39.6433305,13.8259268 40.8686315,12.958913 C42.0939325,12.0918992 43.7733542,12.4065752 44.6197249,13.6617616 L46.8515372,16.9715887 Z" id="Combined-Shape"></path>
                    </g>
                </g>
            </g>
            <g id="Group-19" transform="translate(846.000000, 198.000000)">
                <g id="Path-28" transform="translate(57.000000, 0.000000)"></g>
            </g>
        </g>
        <g id="Characters-standing-/-Woman-standing-/-3" transform="translate(326.000000, 145.000000)">
            <g id="Woman" transform="translate(266.000000, 28.000000)">
                <path d="M35.0536954,919 C32.5536954,919 30.5536954,917.269231 30.5536954,915.192308 L30.5536954,913.807692 C30.5536954,911.730769 32.6536954,910 35.0536954,910 L137.553695,910 C140.053695,910 142.053695,911.730769 142.053695,913.807692 L142.053695,915.192308 C142.053695,917.269231 139.953695,919 137.553695,919 L35.0536954,919 Z M294.053695,910 L457.053695,910 C459.538977,910 461.553695,912.014719 461.553695,914.5 C461.553695,916.985281 459.538977,919 457.053695,919 L294.053695,919 C291.568414,919 289.553695,916.985281 289.553695,914.5 C289.553695,912.014719 291.568414,910 294.053695,910 Z" id="Base" fill="#FFCB3D" fill-rule="nonzero"></path>
                <path d="M456.345459,910 L294.5,910 C294.15068,910 293.810656,910.039803 293.484216,910.11512 L291.9121,847.431943 L367.519783,847.212374 C376.759931,853.252031 382.770314,857.614466 385.550935,860.29968 C389.721865,864.327501 394.187514,868.050131 399.044376,871.265857 C410.780483,878.962206 416.879554,878.855746 434.728694,887.245514 C439.568104,889.461392 444.212779,891.980715 448.762706,894.801737 C453.312633,897.62276 454.868252,900.796094 456.151841,905.57442 C456.365772,906.370808 456.379734,907.170686 456.491935,907.868834 C456.507532,908.762354 456.452993,909.452403 456.345459,910 Z M137.209818,910 L35.5,910 C35.1514864,910 34.8092989,910.036497 34.4789494,910.105251 L57.5267326,849.286751 L129.126733,858.986751 L137.209818,910 Z" id="Shoes" fill="#474961" fill-rule="nonzero"></path>
                <path d="M133.552015,122.813533 C142.124583,120.260775 155.513671,111.402857 173.719281,96.2397775 C190.477492,80.6043082 203.972886,67.1140615 214.205463,55.7690373 C224.438041,44.4240131 236.767306,27.9680438 251.19326,6.40112932 C251.070838,6.41606298 250.948538,6.43104149 250.82636,6.44606486 C252.42956,6.20461872 254.041218,5.99779835 255.661333,5.82560376 C287.807008,2.40898774 310.086296,8.34291645 322.499197,23.6273899 L322.502666,23.622883 C347.21044,54.3994269 331.025713,56.6924783 328.199961,67.4562409 C324.10166,83.06736 316.415708,93.9266839 305.142107,100.034213 C299.172669,104.010983 292.954649,106.513223 286.488046,107.54093 C280.021443,108.568637 270.49472,108.568637 257.907877,107.54093 L133.514765,122.8893 L133.552015,122.813533 Z" id="Hat-Inside" fill="#DE3190" fill-rule="nonzero" transform="translate(234.764256, 63.889300) rotate(2.000000) translate(-234.764256, -63.889300) "></path>
                <path d="M256.566368,274.939769 C263.932912,276.360747 272.457364,279.116403 278.906837,284.445796 C279.890177,285.490443 281.572534,287.183523 283.640462,289.354695 C315.333447,323.631353 321.67635,355.947831 324.948368,373.060375 C332.771236,412.975527 347.235212,486.362862 360.890979,581.627714 C361.187827,584.528275 361.744053,588.885703 362.415406,594.084501 C363.547272,602.648777 364.579249,609.386319 366.806867,623.326322 C368.088515,631.596023 369.619832,641.397881 371.429942,652.506026 C372.169246,657.177791 365.402001,661.897266 358.083252,662.297302 L302.361252,665.557849 C302.3921,669.213014 302.225671,671.812541 301.861964,673.35643 C296.515538,699.33911 217.062038,700.383223 63.5014648,676.48877 C60.2675781,675.871745 59.0126121,674.662535 59.7365667,672.86114 L97.6668918,361.174929 C102.537477,345.571193 111.417636,327.955183 124.307371,308.3269 C131.902192,295.88235 144.562872,285.414803 160.494073,278.096332 C158.357373,276.243497 156.700256,274.372878 155.210304,272.678425 C150.633941,267.517711 149.34838,260.184331 148.987169,255.202751 C148.82981,254.110886 148.77754,253.113524 148.620181,252.021658 L145.446426,230.257755 C141.137106,231.768671 136.509708,232.593445 131.602448,232.593445 C112.360441,232.593445 105.915171,231.416952 92.4970739,214.902798 C84.8051893,205.436108 70.9911954,181.992131 70.9911954,170.977669 C70.9911954,140.749041 93.7246435,125.902798 123.997074,125.902798 C135.069682,125.902798 145.734936,127.888993 154.809486,131.887618 C166.296908,126.311324 182.01497,123.955066 199.345098,123.150417 L205.037286,122.852102 C217.30793,122.288794 228.587962,124.704192 238.220882,129.206529 C243.851717,129.068843 250.625258,129 258.541504,129 C286.708026,129 314.204554,151.736276 314.204554,179.902798 C314.204554,208.06932 299.339826,224.713345 271.173304,224.713345 C270.270073,224.713345 269.371975,224.640423 268.479012,224.494578 L267.5355,247.289723 C267.493133,248.392056 267.44554,249.394652 267.503036,250.491751 C267.674975,255.68327 266.911008,262.12396 262.893929,267.635026 C261.233649,269.893154 259.333069,272.426209 256.566368,274.939769 Z" id="Dress" fill="#A339FF" fill-rule="nonzero"></path>
                <path d="M200.622791,89.69423 L200.908445,89.0679963 C200.803349,88.9733669 200.798115,88.873504 200.798115,88.873504 C200.551287,87.9852046 199.610651,87.2334033 198.706651,87.1806427 C196.88295,86.7755327 194.134314,85.9182102 191.717094,83.741735 C188.348771,80.6137326 186.173994,75.4204344 187.499654,70.1438233 C188.735919,65.0721717 193.314763,60.726578 198.113418,60.5752284 C200.814952,60.5337842 203.079974,61.7168635 203.39003,61.9008886 C203.395263,62.0007516 203.495126,61.995518 203.495126,61.995518 C205.565656,63.2889274 208.183451,61.649676 207.957982,59.2581988 L205.619552,33.7456186 C205.535815,32.1478114 206.6609,30.6869269 208.253473,30.5033264 C211.144265,30.2516892 213.919494,29.7056967 216.778884,28.8548817 C219.853701,28.2931884 222.034986,27.8784605 222.728793,27.7419624 C227.585442,26.7864755 236.389083,26.6255079 244.345868,29.412902 C247.725083,30.8380006 251.04107,32.9673735 253.904845,36.0216809 C254.645755,36.7839494 255.391898,37.6460808 256.148508,38.7079381 C256.363935,38.9970598 256.579361,39.2861814 256.800022,39.675166 C258.975223,42.9658346 260.277826,46.8029202 260.48717,50.7974383 L261.723572,68.6572062 C261.717914,70.459973 261.812118,72.2575061 261.606734,74.0707401 C259.777938,96.4971866 251.722276,112.841186 243.491221,114.374067 C242.503058,114.626129 237.136627,115.408058 230.672128,114.344927 C230.062483,114.176602 230.572265,114.35016 221.83751,112.004087 C221.56712,111.932343 221.301059,111.861249 221.039265,111.790811 L220.368233,122.510461 C223.470154,123.636967 226.88016,125.021489 230.598249,126.664028 C228.725746,130.158699 224.286742,132.571622 217.281235,133.902798 C206.772975,135.899561 199.72559,135.899561 190.050297,133.441229 C186.317,132.49266 181.799259,129.945791 176.497074,125.800622 C181.839265,123.894475 186.556957,122.378797 190.650149,121.253586 L191.834069,101.259621 L191.367855,94.2744475 L191.97354,88.6350197 L200.622791,89.69423 Z M521.008838,146.012272 C528.601347,145.745915 535.877094,149.85439 533.563438,154.54757 C531.664603,158.399297 522.96236,163.39208 507.456709,169.52592 C507.14125,169.851033 506.782533,170.18784 506.376025,170.537646 C498.683765,177.156942 464.326972,196.77147 425.701156,234.442383 C413.85057,246 400.038181,259.586277 371.553695,260.051194 C352.564039,260.361139 327.662941,252.525892 296.850402,236.545455 L279.04891,224.27381 C301.78017,221.215479 313.70748,205.230508 313.70748,180 C313.70748,174.24118 312.752987,168.705293 310.993573,163.541912 L371.497074,190.980469 C419.115479,170.453983 448.86417,153.959054 460.743149,141.49568 C478.561616,122.800619 514.83253,118.804295 523.553695,117.461603 C532.485805,116.086434 541.022794,112.628837 548.153041,112.629159 C560.727429,112.629727 537.853079,133.573645 521.008838,146.012272 Z M155.853448,688.778547 L129.126733,858.986751 L57.5228251,849.78237 L72.8816454,677.832518 C103.632192,682.524992 131.28946,686.173668 155.853448,688.778547 Z M268.648276,691.534858 C288.90602,688.575284 299.977249,682.515807 301.861964,673.35643 C302.232954,671.781626 302.399693,669.110374 302.362179,665.342675 L354.563491,662.50266 L367.026733,847.234948 L291.9121,847.431943 L268.648276,691.534858 Z M118.682822,317.836965 C108.937878,333.778142 102.020379,348.300319 97.9303251,361.403494 L96.0974086,376.465183 C85.4402996,380.19291 72.5411716,384.205113 57.6849442,387.925538 C50.4819785,389.706759 47.7068799,378.184013 53.4970739,370.395439 L81.3161628,348.279174 C58.6563188,332.243781 37.9048016,315.032085 19.0616115,296.644087 C-9.56993326,268.704189 3.18229704,251.608468 6.58229704,243.441229 C11.9555252,230.413037 29.1105412,199.845111 71.1083635,167.517758 C71.0364463,168.678824 71,169.864517 71,171.074871 C71,182.089333 84.8139939,205.53331 92.5058785,215 C98.4794089,222.351847 103.070999,226.663934 108.024935,229.185711 C110.794397,230.633518 113.668252,231.51237 116.953468,232.04215 C100.791323,246.078715 84.9318673,259.758774 73.336213,268.071904 L118.682822,317.836965 Z" id="Skin" fill="#F2A98A" fill-rule="nonzero"></path>
                <path d="M115.497074,233.357396 L115.497074,314.45144 L99.4970739,296.727161 L99.4970739,247.134955 C104.680035,242.729653 110.063767,238.073383 115.497074,233.357396 Z M196.988587,340.453816 C225.963235,356.979084 245.497074,388.159755 245.497074,423.902798 C245.497074,476.922134 202.51641,519.902798 149.497074,519.902798 C96.4777379,519.902798 53.4970739,476.922134 53.4970739,423.902798 C53.4970739,370.883462 96.4777379,327.902798 149.497074,327.902798 C160.527641,327.902798 171.123695,329.763172 180.988587,333.187272 L180.988587,179.641353 C181.330931,176.793792 181.505878,173.929167 181.505878,171.074871 C181.505878,168.538941 181.314256,166.111271 180.945289,163.791541 C180.569562,156.663735 177.77806,150.514123 173.724894,146.480108 C164.785815,134.487348 149.082383,127.803686 131.602448,126.318538 L131.602448,125.441229 L162.374726,125.441229 C181.851072,125.441229 196.988587,143.642288 196.988587,165.441229 L196.988587,340.453816 Z" id="Bag" fill="#FFCB3D" fill-rule="nonzero"></path>
                <path d="M268.47379,224.58485 L270.440958,177.058281 C270.75788,171.641122 270.165582,166.071592 268.295973,160.969044 C263.57391,147.929481 253.019907,136.532458 238.793434,129.711328 C246.565047,129.459168 253.616138,129.222058 259.946708,129 C272.427176,128.562221 288.678493,135.685509 300.501116,147.358259 C310.031529,156.767857 313.70748,168.280158 313.70748,180 C313.70748,208.166522 299.376697,224.810547 271.210175,224.810547 C270.29275,224.810547 269.380621,224.735315 268.47379,224.58485 Z" id="Shadow-Arm" fill="#444444" fill-rule="nonzero" opacity="0.176985679"></path>
                <polygon id="Shadow" fill="#482D1F" fill-rule="nonzero" transform="translate(215.369129, 114.709312) scale(-1, 1) rotate(-12.000000) translate(-215.369129, -114.709312) " points="209.048414 120.342019 221.689844 109.076605 210.400224 110.690237"></polygon>
                <g id="Face" transform="translate(213.162263, 78.709488) rotate(9.000000) translate(-213.162263, -78.709488) translate(163.662263, 23.709488)" fill="#482D1F" fill-rule="nonzero">
                    <path d="M92.2871308,41.1291551 C92.1981783,39.9282857 93.0294321,38.7841629 94.2146581,38.5964415 C95.0048088,38.4712939 95.7587644,38.7568651 96.2584358,39.9939296 C97.6479455,43.0137413 95.4201225,48.1251799 93.7714202,46.665118 C92.6947794,45.620683 92.3555317,42.8395122 92.2871308,41.1291551 Z M74.6231529,44.0281009 C74.5342004,42.8272314 75.3654543,41.6831086 76.5506803,41.4953873 C77.340831,41.3702397 78.0947866,41.6558109 78.5944579,42.8928754 C79.9839677,45.9126871 77.7561447,51.0241257 76.1074424,49.5640637 C75.0308015,48.5196288 74.6915539,45.738458 74.6231529,44.0281009 Z" id="Eyes"></path>
                    <path d="M88.0847828,64.45762 C88.7847828,64.25762 90.4847828,63.75762 90.7847828,62.65762 C90.7847828,62.45762 90.8847828,62.15762 90.7847828,61.95762 C90.3847828,61.25762 89.1847828,61.65762 87.3847828,61.75762 C84.1847828,61.85762 81.5847828,61.55762 81.5847828,61.55762 C81.5847828,61.55762 82.2847828,63.55762 82.7847828,64.15762 C83.7847828,65.75762 86.9847828,64.75762 88.0847828,64.45762 Z" id="Mouth" transform="translate(86.207005, 63.297710) scale(-1, 1) rotate(9.000000) translate(-86.207005, -63.297710) "></path>
                    <path d="M98.1470111,32.1013203 C96.2342082,32.8092645 93.2349482,33.6892867 90.4430421,33.3215091 C85.7950797,32.7414693 89.7498223,29.5839368 93.7993445,28.9425555 C95.7747211,28.6296866 97.3970447,29.2839544 98.4111117,29.9333141 C99.2951231,30.4007795 99.1034126,31.7473481 98.1470111,32.1013203 Z M79.1110049,35.9262995 C77.198202,36.6342438 74.1989419,37.514266 71.1938547,37.0790064 C66.5615358,36.5977355 70.5006349,33.3414342 74.5501571,32.7000529 C76.6243026,32.3715405 78.2466262,33.0258083 79.2606932,33.675168 C80.2591169,34.2257588 80.0674063,35.5723274 79.1110049,35.9262995 Z M1.46804173,42.2775743 C0.568145432,37.1698019 0.512735032,30.8079554 3.49577897,24.6035779 C5.40908657,20.6186997 8.14412668,18.0949019 9.34720397,17.0213074 C15.9078966,11.3329586 22.0324174,11.7691306 36.6923492,7.63072528 C37.8453351,7.28341649 39.760048,6.67196359 42.2616494,5.93576368 C43.3168206,5.60924606 44.1763623,5.32431077 45.035904,5.03937549 C47.9849969,4.00359021 50.0745481,3.25274021 50.7384602,3.00938727 C55.3858453,1.30591666 64.0559177,-0.230261937 72.3507864,1.2780992 C75.9113322,2.15702678 79.5196014,3.74144885 82.8259173,6.31015961 C83.67695,6.9471395 84.5487738,7.68193416 85.46218,8.61235834 C83.8886348,9.86693222 82.1048101,11.5751387 79.8820028,12.6610153 C72.9201369,15.9810186 66.2772422,16.472903 62.1567401,16.3264021 C56.8336033,25.4321264 51.5874901,34.4192448 46.3621681,43.5041779 C46.1646534,43.9940516 45.9616084,44.5194253 45.753919,45.0758728 L44.3373583,43.116692 C44.3373583,43.116692 42.1070048,40.3192784 38.2052913,38.7972298 C37.8702646,38.6639738 35.4480547,37.8497877 32.786265,38.3133345 C28.0703654,39.2134958 24.2276948,44.2218771 23.8000319,49.4244826 C23.2183218,54.8643 26.1787342,59.6534501 29.9741239,62.118205 C33.7695136,64.5829599 37.925457,64.4152253 39.2594224,64.4383844 L39.6996179,64.2996561 C39.6338028,64.5265861 39.5682816,64.7527527 39.5030779,64.9780373 C40.0212989,66.8901794 42.1392287,75.9869906 38.1309302,84.3515238 C38.7711658,85.3357251 39.216488,86.4720728 39.4025152,87.7173347 L40.2525852,93.15952 C40.8262289,96.8202484 39.0253862,100.372285 35.7119665,102.098915 L24.1920212,108.023513 C15.9854957,112.221481 7.92125513,102.178672 13.7580301,95.0084513 C16.0288774,92.3077031 18.2075355,89.922202 20.1179993,87.9322653 C18.3159948,85.7980934 15.7219211,83.152636 11.9879702,79.9473462 C-0.517148997,69.2127295 1.41325405,42.2215542 1.41325405,42.2215542 L1.46804173,42.2775743 Z" id="Hair"></path>
                    <path d="M84.7099621,44.1151318 L84.7208144,43.9841901 L84.7110778,44.0493037 L84.7099621,44.1151318 Z M83.1208144,54.6841901 C82.9312051,55.8209961 83.8055451,56.9284934 84.9454195,57.1184725 C85.0728269,57.1381526 85.1879509,57.1545129 85.3038853,57.1696591 C86.0103734,57.2619584 86.6695998,57.3055619 87.8928551,57.3535327 C88.081628,57.3609356 88.798276,57.3879326 88.8078217,57.3882966 C89.2046758,57.4034309 89.5294553,57.4164858 89.8663813,57.4311347 C90.4181447,57.4551244 90.8848849,57.0272793 90.9088746,56.4755158 C90.9328643,55.9237523 90.5050192,55.4570121 89.9532557,55.4330224 C89.6122957,55.418198 89.2841591,55.4050082 88.8840375,55.3897494 C88.873097,55.3893321 88.1581781,55.3624003 87.9712263,55.3550688 C86.8045649,55.3093174 86.1936919,55.2689121 85.5629739,55.1865119 C85.4619966,55.1733197 85.3618808,55.1590923 85.2618757,55.1437069 C85.1837889,55.1306132 85.093019,55.015638 85.0962124,54.9964775 L86.6988225,44.279967 L86.7096749,44.1490253 L86.8096749,38.2490253 C86.8190343,37.6968198 86.3789706,37.2415816 85.8267652,37.2322222 C85.2745598,37.2228627 84.8193215,37.6629264 84.8099621,38.2151318 L84.7110778,44.0493037 L83.1208144,54.6841901 Z" id="Nose" transform="translate(87.002356, 47.332086) scale(-1, 1) rotate(9.000000) translate(-87.002356, -47.332086) "></path>
                </g>
                <path d="M520.959928,146.012272 C528.552437,145.745915 535.828185,149.85439 533.514528,154.54757 C531.615693,158.399297 522.91345,163.39208 507.407799,169.52592 C507.09234,169.851033 506.733623,170.18784 506.327115,170.537646 C498.634855,177.156942 464.278062,196.77147 425.652246,234.442383 C413.80166,246 399.989271,259.586277 371.504785,260.051194 C352.515129,260.361139 327.614031,252.525892 296.801492,236.545455 L279,224.27381 C301.73126,221.215479 313.65857,205.230508 313.65857,180 C313.65857,174.247473 312.706162,168.717392 310.950428,163.558841 L371.448164,190.980469 C419.066569,170.453983 448.815261,153.959054 460.694239,141.49568 C478.512706,122.800619 514.78362,118.804295 523.504785,117.461603 C532.436895,116.086434 540.973884,112.628837 548.104131,112.629159 C560.678519,112.629727 537.804169,133.573645 520.959928,146.012272 Z" id="Shadow-Arm" fill="#8C2A00" fill-rule="nonzero" opacity="0.2"></path>
                <path d="M149.227857,48.5559157 C149.735398,28.8093575 166.187988,14.5201096 186.950021,8.50091055 C198.57767,5.12989498 208.476886,5.6117735 216.647669,9.94654613 C226.813408,7.39003913 238.322328,5.32790267 251.17443,3.76013674 C236.748476,25.3270512 224.41921,41.7830205 214.186633,53.1280447 C203.954055,64.4730689 190.449152,78.2043688 173.671923,94.3219443 C153.908726,110.585869 139.848448,119.401516 131.491088,120.768884 C123.133728,122.136252 105.629892,120.47913 78.9795813,115.797517 C101.22539,90.8513972 119.098894,73.1885696 132.600093,62.8090337 C137.433869,59.0928929 143.020982,54.0367214 149.227857,48.5559157 Z" id="Hat" fill="#FFCB3D" fill-rule="nonzero" transform="translate(165.077005, 62.496330) rotate(2.000000) translate(-165.077005, -62.496330) "></path>
                <path d="M150.718016,49.4953427 C151.193178,29.7171859 167.658274,15.4046865 188.441698,9.37928591 C200.168459,5.97953667 210.137195,6.49864361 218.347906,10.9366067 C207.189647,13.7204598 197.639249,17.0961016 189.696714,21.0635323 C175.209322,28.3002295 161.953695,39.5779984 150.718016,49.4953546 Z" id="Shadow-Hat" fill="#8C2A00" fill-rule="nonzero" opacity="0.2" transform="translate(184.532961, 28.331293) rotate(2.000000) translate(-184.532961, -28.331293) "></path>
                <path d="M252.629233,273.832757 C260.725573,274.978073 271.306756,277.677604 278.963458,284.004567 C279.946799,285.049214 281.629156,286.742294 283.697084,288.913466 C315.390069,323.190124 321.732971,355.506602 325.00499,372.619146 C332.827857,412.534298 347.291834,485.921633 360.947601,581.186485 C361.244449,584.087046 361.800674,588.444474 362.472028,593.643272 C363.603893,602.207547 364.635871,608.94509 366.863489,622.885093 C368.145136,631.154793 369.676454,640.956652 371.486563,652.064797 C372.225867,656.736562 365.906395,661.766468 358.587646,662.166504 L302.520457,665.334868 C302.37136,634.607426 287.839144,526.669707 258.923808,341.521712 C256.842427,312.967999 255.621969,290.74463 255.262433,274.851604 C254.348671,274.543366 253.481111,274.199867 252.629233,273.832757 Z" id="Shadow-Dress" fill="#444444" fill-rule="nonzero" opacity="0.176985679"></path>
                <path d="M149.497074,498.902798 C108.075718,498.902798 74.4970739,465.324154 74.4970739,423.902798 C74.4970739,382.481442 108.075718,348.902798 149.497074,348.902798 C190.91843,348.902798 224.497074,382.481442 224.497074,423.902798 C224.497074,465.324154 190.91843,498.902798 149.497074,498.902798 Z M149.497074,480.902798 C180.977305,480.902798 206.497074,455.383029 206.497074,423.902798 C206.497074,392.422567 180.977305,366.902798 149.497074,366.902798 C118.016843,366.902798 92.4970739,392.422567 92.4970739,423.902798 C92.4970739,455.383029 118.016843,480.902798 149.497074,480.902798 Z M149.497074,462.902798 C127.957969,462.902798 110.497074,445.441903 110.497074,423.902798 C110.497074,402.363693 127.957969,384.902798 149.497074,384.902798 C171.036179,384.902798 188.497074,402.363693 188.497074,423.902798 C188.497074,445.441903 171.036179,462.902798 149.497074,462.902798 Z M149.497074,443.902798 C160.542769,443.902798 169.497074,434.948493 169.497074,423.902798 C169.497074,412.857103 160.542769,403.902798 149.497074,403.902798 C138.451379,403.902798 129.497074,412.857103 129.497074,423.902798 C129.497074,434.948493 138.451379,443.902798 149.497074,443.902798 Z" id="Shadow-Bag" fill="#8C2A00" fill-rule="nonzero" opacity="0.2"></path>
            </g>
        </g>
    </g>
</svg>