<?xml version="1.0" encoding="UTF-8"?>
<svg width="1700px" height="1200px" viewBox="0 0 1700 1200" version="1.1" xmlns="http://www.w3.org/2000/svg" xmlns:xlink="http://www.w3.org/1999/xlink">
    <!-- Generator: Sketch 56.1 (81669) - https://sketch.com -->
    <title>Geo location</title>
    <desc>Created with Sketch.</desc>
    <g id="Geo-location" stroke="none" stroke-width="1" fill="none" fill-rule="evenodd">
        <g id="Group" transform="translate(-39.000000, 33.000000)">
            <g id="back" transform="translate(300.000000, 0.000000)">
                <g id="Group-6">
                    <g>
                        <g id="UI-/-Map-background-/-1">
                            <g id="back" transform="translate(0.000000, -70.000000)">
                                <g id="Group-8">
                                    <g id="Group-4" transform="translate(508.652188, 366.379114) scale(-1, 1) rotate(-165.000000) translate(-508.652188, -366.379114) translate(51.152188, 109.879114)" fill-rule="nonzero">
                                        <circle id="Oval" fill="#E1E5F0" cx="345.971858" cy="371.504477" r="77"></circle>
                                        <path d="M79.0302131,286.592683 L191.187456,0.592682797 L285.030213,36.7694083 L231.885427,261.832612 L79.0302131,286.592683 Z M0.161379012,512.073849 L53.0912234,360.073849 L141.161379,492.324244 L0.161379012,512.073849 Z M70.639405,338.60877 L217.639405,306.853962 L217.639405,487.853962 L170.323542,487.853962 L70.639405,338.60877 Z M253.335765,262.978801 L320.335765,51.9788011 L386.274859,78.6054425 L341.266041,245.461338 L253.335765,262.978801 Z M388.832306,238.661926 L427.167427,86.9707712 L519.634466,124.175398 L528.563494,220.149703 L388.832306,238.661926 Z M541.751724,67.1404234 L636.340769,45.3723252 L654.974962,104.592718 L542.142734,124.47326 L541.751724,67.1404234 Z M658.950106,41.2290281 L741.179562,13.7038952 L765.296588,70.8910224 L674.524744,99.3543693 L658.950106,41.2290281 Z M544.285446,142.749943 L672.509109,122.353581 L785.31612,83.7856798 L836.285446,163.470529 L554.900209,216.17411 L544.285446,142.749943 Z M440.52437,286.581525 L543.52437,263.378519 L543.52437,346.993099 L455.347204,360.378519 L440.52437,286.581525 Z M462.816513,382.004124 L542.961427,370.571079 L563.505664,436.039304 L458.505664,448.296629 L462.816513,382.004124 Z M580.882691,263.041035 L704.258289,244.911994 L733.882691,422.844577 L612.405425,434.911994 L580.882691,263.041035 Z M725.795936,243.56899 L862.628265,216.806542 L914.901227,329.531811 L759.34082,418.672687 L725.795936,243.56899 Z M346.534376,434.856201 C311.740437,434.856201 283.534376,406.65014 283.534376,371.856201 C283.534376,337.062262 311.740437,308.856201 346.534376,308.856201 C381.328316,308.856201 409.534376,337.062262 409.534376,371.856201 C409.534376,406.65014 381.328316,434.856201 346.534376,434.856201 Z M769.707746,9.03823241 L879.379297,10.5833787 C882.426664,10.6263126 885.096051,12.6359866 885.979873,15.5526879 C887.101009,19.2525471 885.010541,23.1607358 881.310681,24.2818717 L784.793388,53.5286619 L769.707746,9.03823241 Z" id="Combined-Shape" fill="#F2F6FB"></path>
                                    </g>
                                    <path d="M494.661195,514.294306 C496.707793,517.895517 495.447531,522.473971 491.846319,524.52057 C488.245108,526.567168 483.666654,525.306906 481.620055,521.705694 L468.279556,498.231643 C466.232957,494.630432 467.49322,490.051978 471.094431,488.005379 C474.695642,485.958781 479.274097,487.219043 481.320695,490.820255 L494.661195,514.294306 Z M467.980195,467.346204 C470.026794,470.947415 468.766531,475.525869 465.16532,477.572468 C461.564109,479.619066 456.985654,478.358804 454.939056,474.757592 L441.598556,451.283541 C439.551958,447.68233 440.81222,443.103876 444.413432,441.057277 C448.014643,439.010679 452.593097,440.270942 454.639696,443.872153 L467.980195,467.346204 Z M441.20612,420.401784 C443.273343,423.991196 442.039366,428.576804 438.449954,430.644027 C434.860542,432.711251 430.274934,431.477273 428.207711,427.887861 L414.732771,404.490725 C412.665548,400.901313 413.899526,396.315704 417.488937,394.248481 C421.078349,392.181258 425.663957,393.415236 427.731181,397.004647 L441.20612,420.401784 Z M410.104765,385.637519 C405.983036,386.048183 402.308807,383.03977 401.898144,378.918042 C401.48748,374.796314 404.495892,371.122085 408.617621,370.711421 L435.484597,368.034562 C439.606325,367.623899 443.280555,370.632311 443.691218,374.754039 C444.101882,378.875767 441.093469,382.549997 436.971741,382.96066 L410.104765,385.637519 Z M463.838718,380.283801 C459.716989,380.694464 456.04276,377.686052 455.632097,373.564324 C455.221433,369.442596 458.229845,365.768366 462.351574,365.357703 L489.21855,362.680844 C493.340278,362.27018 497.014508,365.278593 497.425171,369.400321 C497.835835,373.522049 494.827422,377.196278 490.705694,377.606942 L463.838718,380.283801 Z M517.57267,374.930083 C513.450942,375.340746 509.776713,372.332334 509.366049,368.210606 C508.955386,364.088877 511.963798,360.414648 516.085527,360.003985 L542.952503,357.327125 C547.074231,356.916462 550.748461,359.924874 551.159124,364.046602 C551.569787,368.168331 548.561375,371.84256 544.439647,372.253223 L517.57267,374.930083 Z M571.306623,369.576364 C567.184895,369.987028 563.510666,366.978615 563.100002,362.856887 C562.689339,358.735159 565.697751,355.06093 569.819479,354.650266 L596.686456,351.973407 C600.808184,351.562744 604.482413,354.571156 604.893077,358.692884 C605.30374,362.814612 602.295328,366.488842 598.1736,366.899505 L571.306623,369.576364 Z M625.040576,364.222646 C620.918848,364.633309 617.244619,361.624897 616.833955,357.503169 C616.423292,353.381441 619.431704,349.707211 623.553432,349.296548 L650.420409,346.619689 C654.542137,346.209025 658.216366,349.217438 658.62703,353.339166 C659.037693,357.460894 656.029281,361.135123 651.907553,361.545787 L625.040576,364.222646 Z M678.774529,358.868928 C674.652801,359.279591 670.978572,356.271179 670.567908,352.149451 C670.157245,348.027722 673.165657,344.353493 677.287385,343.94283 L704.154362,341.26597 C708.27609,340.855307 711.950319,343.863719 712.360983,347.985448 C712.771646,352.107176 709.763234,355.781405 705.641506,356.192069 L678.774529,358.868928 Z M732.508482,353.515209 C728.386754,353.925873 724.712525,350.917461 724.301861,346.795732 C723.891198,342.674004 726.89961,338.999775 731.021338,338.589111 L757.888315,335.912252 C762.010043,335.501589 765.684272,338.510001 766.094936,342.631729 C766.505599,346.753457 763.497187,350.427687 759.375459,350.83835 L732.508482,353.515209 Z M786.096706,348.673364 C781.965918,348.979766 778.368865,345.87949 778.062463,341.748702 C777.75606,337.617915 780.856337,334.020862 784.987124,333.714459 L811.913152,331.717212 C816.04394,331.410809 819.640993,334.511086 819.947396,338.641873 C820.253798,342.772661 817.153522,346.369714 813.022734,346.676117 L786.096706,348.673364 Z M839.948763,344.678869 C835.817975,344.985272 832.220922,341.884995 831.914519,337.754208 C831.608117,333.62342 834.708393,330.026367 838.839181,329.719965 L865.765209,327.722717 C869.895997,327.416315 873.49305,330.516591 873.799452,334.647379 C874.105855,338.778166 871.005578,342.375219 866.874791,342.681622 L839.948763,344.678869 Z M893.800819,340.684375 C889.670032,340.990777 886.072979,337.890501 885.766576,333.759713 C885.460173,329.628926 888.56045,326.031873 892.691237,325.72547 L900.96474,325.11178 L901.144999,325.10059 L919.825431,324.166568 C923.962399,323.95972 927.483757,327.145711 927.690606,331.282679 C927.897454,335.419646 924.711463,338.941005 920.574495,339.147853 L901.894063,340.081875 L902.074322,340.070685 L893.800819,340.684375 Z M935.156656,309.550544 C934.411463,313.625096 930.504287,316.324075 926.429735,315.578881 C922.355183,314.833688 919.656204,310.926513 920.401398,306.851961 L925.258848,280.292496 C926.004041,276.217944 929.911217,273.518965 933.985769,274.264158 C938.060321,275.009352 940.7593,278.916527 940.014106,282.991079 L935.156656,309.550544 Z M944.871557,256.431614 C944.126363,260.506166 940.219188,263.205145 936.144636,262.459952 C932.070084,261.714758 929.371105,257.807583 930.116298,253.733031 L934.973749,227.173566 C935.718942,223.099014 939.626117,220.400035 943.70067,221.145228 C947.775222,221.890422 950.4742,225.797597 949.729007,229.872149 L944.871557,256.431614 Z M482,579 C470.40202,579 461,569.59798 461,558 C461,546.40202 470.40202,537 482,537 C493.59798,537 503,546.40202 503,558 C503,569.59798 493.59798,579 482,579 Z M931,205 C919.40202,205 910,195.59798 910,184 C910,172.40202 919.40202,163 931,163 C942.59798,163 952,172.40202 952,184 C952,195.59798 942.59798,205 931,205 Z" id="Combined-Shape" fill="#D8DEED" fill-rule="nonzero"></path>
                                    <g id="Group-5" transform="translate(319.000000, 134.000000)">
                                        <path d="M60.3716977,158.610973 C91.4572326,106.464002 107,71.2743853 107,53.0421217 C107,23.7477668 83.0472341,0 53.5,0 C23.9527659,0 0,23.7477668 0,53.0421217 C0,71.274385 15.542767,106.464001 46.628301,158.610971 L46.6282973,158.610973 C48.8906302,162.406108 53.8011784,163.64869 57.5963136,161.386357 C58.7375539,160.706048 59.6913884,159.752213 60.3716977,158.610973 Z" id="Pin" fill="#474BFF" fill-rule="nonzero"></path>
                                        <ellipse id="Oval" fill="#FFFFFF" cx="54" cy="58.5" rx="31" ry="31.5"></ellipse>
                                    </g>
                                </g>
                            </g>
                        </g>
                        <g id="UI-/-Device-/-1" transform="translate(772.000000, 80.000000)">
                            <g id="Phone" transform="translate(95.000000, 0.000000)">
                                <path d="M0,8.00790385 C0,3.58526067 3.58983883,0 8.00351195,0 L224.996488,0 C229.416706,0 233,3.58218913 233,8.00790385 L233,340.992096 C233,345.414739 229.410161,349 224.996488,349 L8.00351195,349 C3.58329436,349 0,345.417811 0,340.992096 L0,8.00790385 Z" id="Body" fill="#E1E5F0" fill-rule="nonzero"></path>
                                <path d="M117.642157,333.03268 C110.703403,333.03268 105.078431,327.415755 105.078431,320.486928 C105.078431,313.558101 110.703403,307.941176 117.642157,307.941176 C124.580911,307.941176 130.205882,313.558101 130.205882,320.486928 C130.205882,327.415755 124.580911,333.03268 117.642157,333.03268 Z M115.357843,27.372549 C113.465456,27.372549 111.931373,25.8406606 111.931373,23.9509804 C111.931373,22.0613002 113.465456,20.5294118 115.357843,20.5294118 C117.250231,20.5294118 118.784314,22.0613002 118.784314,23.9509804 C118.784314,25.8406606 117.250231,27.372549 115.357843,27.372549 Z M11,41.0007809 C11,39.8957801 11.8913017,39 12.9959214,39 L219.160941,39 C220.263258,39 221.156863,39.8890162 221.156863,41.0007809 L221.156863,205.999219 C221.156863,207.10422 220.265561,208 219.160941,208 L12.9959214,208 C11.8936045,208 11,207.110984 11,205.999219 L11,41.0007809 Z" id="Combined-Shape" fill="#F2F6FB" fill-rule="nonzero"></path>
                                <path d="M11.4215686,209.782618 C11.4215686,208.675376 12.3128703,207.777778 13.4174901,207.777778 L219.58251,207.777778 C220.684827,207.777778 221.578431,208.673081 221.578431,209.782618 L221.578431,294.772937 C221.578431,295.88018 220.68713,296.777778 219.58251,296.777778 L13.4174901,296.777778 C12.3151731,296.777778 11.4215686,295.882475 11.4215686,294.772937 L11.4215686,209.782618 Z M45,60 L189,60 C196.731986,60 203,66.2680135 203,74 C203,81.7319865 196.731986,88 189,88 L45,88 C37.2680135,88 31,81.7319865 31,74 C31,66.2680135 37.2680135,60 45,60 Z" id="Combined-Shape" fill="#FFFFFF"></path>
                                <path d="M179,207.335937 L179,190.335937 L183.024052,190.335937 C186.041235,190.335937 190,186.55582 190,182.346603 C190,178.137387 187.537777,177.923259 185.391977,170.008954 C184.256457,165.820846 180.792465,163.951643 175,164.401345 C169.207535,163.951643 165.743543,165.820846 164.608023,170.008954 C162.462223,177.923259 160,178.137387 160,182.346603 C160,186.55582 163.958765,190.335937 166.975948,190.335937 C168.987404,190.335937 173.324175,190.335937 179.986263,190.335937 L170.013737,190.335937 L173,190.335937 L173,207.335937 L107,207.335937 L114.154725,157.205612 C114.717289,153.263951 118.092867,150.335937 122.074471,150.335937 L183.768604,150.335937 C187.983601,150.335937 191.475554,153.606337 191.751448,157.812295 L195,207.335937 L179,207.335937 L179,207.335937 Z M47,207.335937 L51.9679893,126.509209 C52.2273533,122.289484 55.7252321,119 59.9529203,119 L91.5018125,119 C95.8675505,119 99.4271339,122.500117 99.5006773,126.865235 L100.856445,207.335937 L47,207.335937 Z M87,136.335937 C85.8954305,136.335937 85,137.231368 85,138.335937 L85,148.335937 C85,149.440507 85.8954305,150.335937 87,150.335937 L92,150.335937 C93.1045695,150.335937 94,149.440507 94,148.335937 L94,138.335937 C94,137.231368 93.1045695,136.335937 92,136.335937 L87,136.335937 Z M70,136.335937 C68.8954305,136.335937 68,137.231368 68,138.335937 L68,148.335937 C68,149.440507 68.8954305,150.335937 70,150.335937 L75,150.335937 C76.1045695,150.335937 77,149.440507 77,148.335937 L77,138.335937 C77,137.231368 76.1045695,136.335937 75,136.335937 L70,136.335937 Z M87,159.335937 C85.8954305,159.335937 85,160.231368 85,161.335937 L85,171.335937 C85,172.440507 85.8954305,173.335937 87,173.335937 L92,173.335937 C93.1045695,173.335937 94,172.440507 94,171.335937 L94,161.335937 C94,160.231368 93.1045695,159.335937 92,159.335937 L87,159.335937 Z M70,159.335937 C68.8954305,159.335937 68,160.231368 68,161.335937 L68,171.335937 C68,172.440507 68.8954305,173.335937 70,173.335937 L75,173.335937 C76.1045695,173.335937 77,172.440507 77,171.335937 L77,161.335937 C77,160.231368 76.1045695,159.335937 75,159.335937 L70,159.335937 Z M87,182.335937 C85.8954305,182.335937 85,183.231368 85,184.335937 L85,194.335937 C85,195.440507 85.8954305,196.335937 87,196.335937 L92,196.335937 C93.1045695,196.335937 94,195.440507 94,194.335937 L94,184.335937 C94,183.231368 93.1045695,182.335937 92,182.335937 L87,182.335937 Z M70,182.335937 C68.8954305,182.335937 68,183.231368 68,184.335937 L68,194.335937 C68,195.440507 68.8954305,196.335937 70,196.335937 L75,196.335937 C76.1045695,196.335937 77,195.440507 77,194.335937 L77,184.335937 C77,183.231368 76.1045695,182.335937 75,182.335937 L70,182.335937 Z M141,159.335937 C139.895431,159.335937 139,160.231368 139,161.335937 L139,171.335937 C139,172.440507 139.895431,173.335937 141,173.335937 L146,173.335937 C147.104569,173.335937 148,172.440507 148,171.335937 L148,161.335937 C148,160.231368 147.104569,159.335937 146,159.335937 L141,159.335937 Z M124,159.335937 C122.895431,159.335937 122,160.231368 122,161.335937 L122,171.335937 C122,172.440507 122.895431,173.335937 124,173.335937 L129,173.335937 C130.104569,173.335937 131,172.440507 131,171.335937 L131,161.335937 C131,160.231368 130.104569,159.335937 129,159.335937 L124,159.335937 Z M141,182.335937 C139.895431,182.335937 139,183.231368 139,184.335937 L139,194.335937 C139,195.440507 139.895431,196.335937 141,196.335937 L146,196.335937 C147.104569,196.335937 148,195.440507 148,194.335937 L148,184.335937 C148,183.231368 147.104569,182.335937 146,182.335937 L141,182.335937 Z M124,182.335937 C122.895431,182.335937 122,183.231368 122,184.335937 L122,194.335937 C122,195.440507 122.895431,196.335937 124,196.335937 L129,196.335937 C130.104569,196.335937 131,195.440507 131,194.335937 L131,184.335937 C131,183.231368 130.104569,182.335937 129,182.335937 L124,182.335937 Z" id="Shape" fill="#A339FF" fill-rule="nonzero"></path>
                                <path d="M45,236 L184,236 C186.761424,236 189,238.238576 189,241 C189,243.761424 186.761424,246 184,246 L45,246 C42.2385763,246 40,243.761424 40,241 C40,238.238576 42.2385763,236 45,236 Z M45,256 L184,256 C186.761424,256 189,258.238576 189,261 C189,263.761424 186.761424,266 184,266 L45,266 C42.2385763,266 40,263.761424 40,261 C40,258.238576 42.2385763,256 45,256 Z M42,67 L59,67 L59,70 L42,70 L42,67 Z M42,73 L59,73 L59,76 L42,76 L42,73 Z M42,79 L59,79 L59,82 L42,82 L42,79 Z M185.271596,75.3437166 L191,81.1569609 L189.05251,83 L183.344344,77.2072937 C182.115179,78.0226395 180.61364,78.5 179,78.5 C174.885597,78.5 171.5,75.3965362 171.5,71.5 C171.5,67.6034638 174.885597,64.5 179,64.5 C183.114403,64.5 186.5,67.6034638 186.5,71.5 C186.5,72.9249677 186.047219,74.243872 185.271596,75.3437166 Z M179,75.5 C181.513014,75.5 183.5,73.678596 183.5,71.5 C183.5,69.321404 181.513014,67.5 179,67.5 C176.486986,67.5 174.5,69.321404 174.5,71.5 C174.5,73.678596 176.486986,75.5 179,75.5 Z" id="Combined-Shape" fill="#E1E5F0" fill-rule="nonzero"></path>
                            </g>
                        </g>
                    </g>
                </g>
            </g>
            <g id="Characters-in-moshion-/-Woman-in-moshion-/-Bike-/-1" transform="translate(583.000000, 248.000000)">
                <g id="Bike" transform="translate(88.000000, 329.000000)">
                    <path d="M450.776283,393.623561 C448.016062,393.542096 445.8445,391.238453 445.925965,388.478231 C446.00743,385.71801 448.311073,383.546448 451.071295,383.627913 L544.275833,386.378751 C547.036055,386.460216 549.207616,388.763858 549.126151,391.52408 C549.044686,394.284302 546.741044,396.455863 543.980822,396.374398 L450.776283,393.623561 Z M311.504221,311.050692 C309.717343,308.945334 309.975522,305.790054 312.080879,304.003177 C314.186237,302.216299 317.341517,302.474478 319.128394,304.579835 L375.993235,371.579835 C377.780113,373.685192 377.521934,376.840472 375.416577,378.62735 C373.31122,380.414227 370.15594,380.156049 368.369062,378.050692 L311.504221,311.050692 Z M252.281069,167.044036 L220.399107,241.270855 C274.425369,265.789212 312,320.206593 312,383.4 C312,469.556421 242.156421,539.4 156,539.4 C69.843579,539.4 0,469.556421 0,383.4 C0,297.243579 69.843579,227.4 156,227.4 C175.421222,227.4 194.013534,230.948986 211.163781,237.433804 L267.605855,106.026719 C268.695668,103.489443 271.636005,102.316043 274.173281,103.405855 C276.710557,104.495668 277.883957,107.436005 276.794145,109.973281 L257.840864,154.099853 L613.332424,154.099853 L577.555456,81.5604431 C575.827313,81.7188003 574.073746,81.8 572.3,81.8 C569.538576,81.8 567.3,79.5614237 567.3,76.8 C567.3,74.0385763 569.538576,71.8 572.3,71.8 C572.44705,71.8 572.5939,71.7993306 572.740545,71.7979956 L560.515746,47.0116667 C559.294277,44.5350818 560.311748,41.5372162 562.788333,40.3157464 C565.264918,39.0942766 568.262784,40.1117484 569.484254,42.5883333 L583.258362,70.515956 C599.231747,66.6748142 610.8,54.6822082 610.8,40.9 C610.8,24.1872913 593.617311,10 572.3,10 L479.4,10 C476.638576,10 474.4,7.76142375 474.4,5 C474.4,2.23857625 476.638576,-8.24229573e-13 479.4,-8.24229573e-13 L572.3,-8.24229573e-13 C598.762343,-8.24229573e-13 620.8,18.1959099 620.8,40.9 C620.8,59.0390362 606.842967,74.2313481 587.769458,79.6624057 L667.498802,241.317231 C687.157177,232.378673 708.997173,227.4 732,227.4 C818.156421,227.4 888,297.243579 888,383.4 C888,469.556421 818.156421,539.4 732,539.4 C645.843579,539.4 576,469.556421 576,383.4 C576,323.805809 609.416353,272.016425 658.533613,245.747294 L619.667494,166.944491 L436.550204,370.444494 C434.541086,372.677245 431.030771,372.647264 429.060084,370.38052 L252.281069,167.044036 Z M671.925563,250.292688 L736.484254,381.188333 C737.705723,383.664918 736.688252,386.662784 734.211667,387.884254 C731.735082,389.105723 728.737216,388.088252 727.515746,385.611667 L662.96037,254.722741 C617.146138,279.355228 586,327.740329 586,383.4 C586,464.033573 651.366427,529.4 732,529.4 C812.633573,529.4 878,464.033573 878,383.4 C878,302.766427 812.633573,237.4 732,237.4 C710.585566,237.4 690.247942,242.010374 671.925563,250.292688 Z M262.972366,164.1 L432.897891,359.553397 L608.774529,164.1 L262.972366,164.1 Z M216.450709,250.46342 L160.594145,380.507334 C159.504332,383.04461 156.563995,384.21801 154.026719,383.128198 C151.489443,382.038385 150.316043,379.098048 151.405855,376.560772 L207.212025,246.634186 C191.276553,240.664439 174.019502,237.4 156,237.4 C75.3664265,237.4 10,302.766427 10,383.4 C10,464.033573 75.3664265,529.4 156,529.4 C236.633573,529.4 302,464.033573 302,383.4 C302,324.327562 266.917323,273.449121 216.450709,250.46342 Z" id="Combined-Shape" fill="#D8DEED" fill-rule="nonzero"></path>
                    <path d="M731.5,413.8 C714.655315,413.8 701,400.368542 701,383.8 C701,367.231458 714.655315,353.8 731.5,353.8 C748.344685,353.8 762,367.231458 762,383.8 C762,400.368542 748.344685,413.8 731.5,413.8 Z M156,414.4 C138.879173,414.4 125,400.520827 125,383.4 C125,366.279173 138.879173,352.4 156,352.4 C173.120827,352.4 187,366.279173 187,383.4 C187,400.520827 173.120827,414.4 156,414.4 Z M428,417.8 C399.833478,417.8 377,394.966522 377,366.8 C377,338.633478 399.833478,315.8 428,315.8 C456.166522,315.8 479,338.633478 479,366.8 C479,394.966522 456.166522,417.8 428,417.8 Z M250.5,97.8 L335.5,97.8 C347.374122,97.8 357,107.425878 357,119.3 C357,131.174122 347.374122,140.8 335.5,140.8 L250.5,140.8 C238.625878,140.8 229,131.174122 229,119.3 C229,107.425878 238.625878,97.8 250.5,97.8 Z" id="Combined-Shape" fill="#E1E5F0" fill-rule="nonzero"></path>
                </g>
                <g id="Legs" transform="translate(329.000000, 319.000000)">
                    <path d="M234.968137,394.386936 C235.974812,391.517329 236.747484,388.522333 237.260824,385.429457 L315.130701,387.547792 C317.22419,387.567463 318.923563,389.503425 318.908849,391.905453 L318.927891,392.505088 C318.81912,394.810666 317.055408,396.57943 314.961919,396.55976 L234.968137,394.386936 Z M139.244608,386.473835 L58.0446077,292.273835 C56.5446077,290.573835 56.6446077,287.873835 58.4446077,286.373835 L58.8446077,285.973835 C59.9446077,285.073835 61.3446077,284.773835 62.7446077,285.173835 C63.5446077,285.273835 64.1446077,285.773835 64.7446077,286.373835 L144.667798,378.578801 L198.244608,390.473835 C200.544608,390.973835 201.844608,393.173835 201.544608,395.373835 L201.444608,395.973835 C200.844608,398.173835 198.644608,399.573835 196.444608,399.173835 L139.244608,386.473835 Z" id="Base" fill="#DE3190" fill-rule="nonzero"></path>
                    <path d="M316.865514,388.039401 C316.345814,387.730406 315.755829,387.553666 315.130701,387.547792 L237.35402,385.431993 C237.130644,386.888755 236.850956,388.324559 236.517496,389.736617 L236.398153,389.73104 C237.443878,385.661596 238,381.395742 238,377 C238,365.07474 233.907004,354.105451 227.04918,345.420299 L239.825217,331.199973 C243.872887,335.360632 278.3181,355.543608 295.935616,364.33412 C300.720002,366.66857 305.314979,369.309816 309.816997,372.154431 C311.989007,374.179863 315.833331,378.248176 317.003729,383.110292 C317.231527,383.902824 317.159508,384.705827 317.283876,385.401911 C317.268497,386.343564 317.111385,387.22615 316.865514,388.039401 Z M62.9250161,285.203721 L109.044608,242.76177 L159.044608,299.46177 L159.644608,305.66177 L161.144608,321.56177 C160.944608,327.36177 161.044608,333.06177 161.844608,338.86177 C162.244608,341.46177 162.644608,343.86177 163.144608,345.96177 C163.563349,347.676613 164.029802,349.272175 164.540797,350.836459 C169.430637,354.056638 175.036073,357.391406 183.344608,363.86177 C187.644608,367.06177 191.544608,370.56177 195.444608,374.26177 C197.244608,376.66177 200.144608,381.46177 200.344608,386.36177 C200.344608,387.16177 200.244608,387.96177 200.144608,388.66177 C199.974709,389.468787 199.705586,390.212661 199.373636,390.892434 C199.031183,390.705494 198.653715,390.562772 198.244608,390.473835 L144.667798,378.578801 L64.7446077,286.373835 C64.1905675,285.819795 63.6365272,285.351022 62.9250161,285.203721 Z M211.647369,332.12085 L226.058105,331.570557 L220.195418,338.078125 C218.861803,336.937975 217.533256,335.904016 216.209776,334.976246 C214.886296,334.048476 213.365494,333.096677 211.647369,332.12085 Z" id="Shoes" fill="#474961" fill-rule="nonzero"></path>
                    <path d="M258.496206,174.000215 L283.860356,174.000215 C283.595452,177.780122 283.293005,181.769305 282.996354,186.090599 C281.77325,202.360287 287.495641,230.148475 293.789587,256.223174 L225.985738,331.574234 L211.326089,332.16437 C204.095848,328.23322 195.808722,326 187,326 C181.637649,326 176.468593,326.827592 171.613588,328.362017 C170.403965,326.505404 169.737064,324.268838 169.849077,321.885974 L170.73657,303.283395 C168.237006,302.890978 165.516187,301.664995 162.890988,300.224485 C133.891176,288.117694 112.568176,277.513803 98.9219881,268.412814 C89.0368455,261.820161 75.0628495,248.883589 57,229.603096 C51.4601226,222.322163 49.8388093,216.7865 52.1360602,212.996107 L161.953784,127.66354 C127.027277,128.793737 99.4632523,128.943495 79.2617104,128.112814 C37.7954995,126.407736 14.3909877,113.712814 3.09098771,83.6128139 C-2.60901229,68.4128139 1.0442088,53.692623 2.49098771,47.0128139 C11.8909877,3.61281393 61.6310496,0.314274508 70.44638,0.0135442177 C76.323267,-0.186942642 103.580437,1.83833476 152.217889,6.08937643 C230.620899,12.6573917 273.343963,17.2316105 280.387081,19.8120327 C283.755963,21.0463065 288.038542,23.156435 288.730831,24.059103 C326.58923,45.5458676 307.015597,85.7128139 305.115597,88.6128139 L304.58076,88.8097804 C300.575665,100.172317 294.399963,112.749297 288.672824,123.379623 C286.721899,137.682134 285.377075,150.700478 284.494139,164.000069 L264.514387,164.000069 C262.556662,167.231895 260.548442,170.571687 258.496206,174.000215 Z M296.680081,267.960878 C302.819921,292.486838 308.583818,313.495589 308.12837,318.856512 C307.72967,324.664355 302.707238,329.152692 296.904631,329.053946 L291.002039,328.956946 L239.943905,331.012335 L296.680081,267.960878 Z" fill="#3ABF7C" fill-rule="nonzero"></path>
                    <path d="M258.618159,173.796496 L284.023449,173.796496 C283.758545,177.576402 283.456098,181.565585 283.159447,185.886879 C281.936344,202.156567 287.658734,229.944755 293.95268,256.019454 L226.148831,331.370514 L211.489182,331.960651 C204.258941,328.0295 195.971815,325.79628 187.163093,325.79628 C181.800742,325.79628 176.631686,326.623872 171.776681,328.158297 C170.567058,326.301684 169.900157,324.065118 170.012171,321.682254 L170.888851,303.306305 C173.759438,303.719234 176.327503,303.007959 178.107785,300.224485 C184.890933,289.607099 190.36525,284.381184 200.890988,268.412814 C220.674528,238.28071 241.233031,202.83548 258.618159,173.796496 Z M288.854085,123.042804 C286.893337,137.397674 285.542906,150.455515 284.657232,163.796349 L264.637813,163.796349 C268.22052,157.883893 271.633294,152.335158 274.8363,147.268378 C276.514862,144.574862 282.419647,135.012531 288.854084,123.042806 Z M296.843174,267.757158 C302.983014,292.283118 308.746911,313.291869 308.291463,318.652792 C307.892764,324.460635 302.870331,328.948972 297.067724,328.850227 L291.165132,328.753226 L240.106998,330.808616 L296.843174,267.757158 Z" id="Shadow-Leg" fill="#444444" fill-rule="nonzero" opacity="0.176985679"></path>
                    <path d="M165.564361,128.685557 L186.624908,102.246104 C187.313112,101.382131 187.170623,100.123843 186.306651,99.4356389 C185.442678,98.7474349 184.18439,98.8899235 183.496186,99.7538963 L162.435639,126.193349 C161.747435,127.057322 161.889924,128.31561 162.753896,129.003814 C163.617869,129.692018 164.876157,129.54953 165.564361,128.685557 Z" id="Shadow" fill="#482D1F" fill-rule="nonzero"></path>
                </g>
                <g id="Body" transform="translate(496.202922, 207.293527) rotate(5.000000) translate(-496.202922, -207.293527) translate(350.202922, 58.793527)">
                    <path d="M177.989149,147.619398 C191.455272,162.164233 185.034071,180.729984 180.197133,190.247277 C181.411925,190.304083 182.50408,191.153561 182.797064,192.380062 L183.090955,193.610358 C183.557938,195.156943 182.612818,196.78075 181.074948,197.148113 L172.40781,199.431187 L169.713322,218.390917 L169.526547,219.378396 L162.6048,268.662668 L161.261292,278.282178 C161.191568,279.079134 160.943783,278.77156 160.774439,279.5598 C160.59638,280.44766 42.0756283,295.861357 40.9461711,293.855285 C40.9548867,293.755666 40.8552672,293.74695 40.8639828,293.647331 C40.4268945,292.906416 39.9985217,292.065883 39.570149,291.225349 C35.0572876,281.99691 32.9838388,271.275399 34.5402688,260.369551 L43.6624342,195.893823 L17.2043478,186.783573 C14.5933704,185.884541 13.2055641,183.039117 14.1045957,180.428139 C15.0036274,177.817162 17.8490519,176.429355 20.4600294,177.328387 L20.6032658,177.377707 C17.3933501,166.306671 14.365923,144.651111 34.7125104,133.375949 C42.3417026,120.808594 49.8707587,110.926448 62.348281,104.478768 C73.7233781,98.7109941 85.423105,98.1631244 94.6880469,99.1751186 C99.7000269,98.3835773 104.909854,98.3097159 110.18816,99.0488246 L132.987335,102.34846 C157.276931,105.647912 175.209209,124.724217 177.989149,147.619398 Z" id="T-shirt" fill="#DE3190" fill-rule="nonzero"></path>
                    <path d="M177.685025,147.258314 C184.011409,153.852453 186.153292,161.2738 186.142153,168.297286 C186.128288,177.039361 182.778837,185.165045 180.011198,190.311977 C181.284594,190.226348 182.416544,190.940945 182.725927,192.236095 L183.091418,193.949427 C183.558401,195.496012 182.45549,196.858085 180.91762,197.225448 C177.185625,198.077512 174.241116,198.765147 172.084094,199.288353 L177.248915,162.946158 L177.505414,161.161723 C178.199903,156.439532 178.237258,151.774452 177.685025,147.258314 Z" id="Shadow-T-shirt" fill="#444444" fill-rule="nonzero" opacity="0.176985679"></path>
                    <path d="M133.219418,86.1967933 L130.134689,104.306368 C129.710331,106.797653 127.493739,108.580621 124.969394,108.46119 C119.273618,108.191721 115.295064,107.749867 113.033732,107.135626 C108.55026,105.917791 105.067011,104.383402 102.583984,102.532459 C101.37416,101.63061 100.774819,100.124675 101.034103,98.6381427 L104.782421,77.1480503 L106.292296,68.2953514 L107.4313,59.5574714 C106.595914,59.0760417 105.750393,58.47988 104.948747,57.7455755 C101.555499,54.5290769 99.2891733,40.473113 100.629114,35.1360202 C101.995201,30.0977858 121.691276,35.7024874 121.482102,33.3116201 C121.342653,31.7177086 120.698543,23.2081316 119.549774,7.78288912 C119.410324,6.1889776 120.592075,4.78062203 122.185987,4.64117284 C125.772287,4.32741216 129.133203,3.73222423 132.840302,2.50445718 C133.23878,2.46959488 133.628543,2.33511312 134.02702,2.30025082 C137.370505,1.50582394 156.150039,-1.84366616 167.713213,10.997401 C168.813995,12.1056788 169.724253,13.3310074 170.651942,14.7555748 C172.849757,18.0766603 174.094956,21.982999 174.24434,25.9852089 L175.107091,43.878103 C175.164352,45.6799691 175.121993,47.4905507 174.980015,49.3098478 C172.72214,71.6918048 164.401249,87.8786138 156.094223,89.3080584 C155.106744,89.4948336 149.744724,90.1647135 143.320532,89.0202637 C142.805004,88.8646027 143.229628,89.1285988 134.573979,86.5732645 C134.109481,86.4458078 133.658077,86.3203071 133.219418,86.1967933 Z M167.663561,231.532856 L169.394474,219.208391 L169.58125,218.220912 L172.279989,199.23127 L179.148499,197.621133 L188.390731,227.892988 C214.076361,234.845807 233.597611,240.265491 246.954481,244.152039 C252.98319,245.906257 256.763785,247.399879 258.296264,248.632906 C267.678759,250.126174 278.070696,253.164246 289.472074,257.747122 C290.135871,258.01394 290.606595,258.615 290.706546,259.323398 C290.860866,260.417133 290.099319,261.428882 289.005583,261.583203 L246.647589,267.559676 L160.680494,280.045835 C103.625822,288.043936 67.0467091,292.991194 50.9431558,294.88761 C46.6004059,296.036751 31.756367,297.866398 15.8651018,291.607988 C13.8677796,290.821389 9.94594932,288.327637 6.37188822,285.049784 C3.98918081,282.864549 2.12069881,277.988476 0.76644222,270.421564 C-1.30626099,258.141747 6.59781275,238.10539 20.0838827,204.355488 C22.1959821,199.117985 24.2490139,194.110856 26.2410657,189.350227 L99.1972358,214.471051 C97.2664378,218.374999 95.4204907,222.096988 93.7964095,225.340801 C113.776948,226.822409 142.582342,228.84848 167.663561,231.532856 Z" id="Skin" fill="#F2A98A" fill-rule="nonzero"></path>
                    <path d="M175.107488,45.2968092 C175.978595,47.7194767 176.783448,49.7243903 177.853728,51.8288499 C179.114998,54.4288499 181.148579,58.9627237 183.95447,65.4304712 C185.841934,69.8621452 186.275151,72.9446488 185.254123,74.6779821 C184.173034,76.5779821 168.288626,80.192965 166.798216,80.2215619 C166.527674,80.2267528 166.258746,80.2327171 165.991449,80.2394227 C170.242602,73.1001586 173.635687,62.1311991 174.955895,49.0441881 C175.0537,47.7909258 175.104231,46.5417995 175.107488,45.2968092 Z M177.732423,38.442841 C175.78519,39.0497067 172.623626,39.5831022 169.954246,39.0592587 C165.322105,38.0378539 169.546585,35.1806233 173.645031,34.950961 C175.644527,34.8413562 177.230386,35.5796332 178.209078,36.2811751 C178.978414,36.9041705 178.706039,38.1394082 177.732423,38.442841 Z M156.123368,39.6875814 C154.176135,40.2944471 151.025024,40.9272947 148.146287,40.3249047 C143.524599,39.4029522 147.738626,36.4462693 151.837071,36.216607 C153.93602,36.0965494 155.521879,36.8348264 156.500571,37.5363683 C157.369359,38.1489109 157.096984,39.3841486 156.123368,39.6875814 Z M114.5248,63.2530438 L117.782229,81.1060713 C117.698108,81.1101858 117.614091,81.1141906 117.530177,81.1180861 C117.534199,81.1384952 117.536257,81.1488909 117.536257,81.1488909 C117.536257,81.1488909 117.520529,81.1391372 117.489771,81.1199539 C97.2324365,82.0522788 83.0260115,76.6214751 73.3795459,73.3967232 C71.6980312,72.8376986 69.7271692,71.968387 68.4942702,70.024175 C66.7861054,67.3629398 67.5009082,64.0858898 68.4400188,60.1162461 C69.0234731,57.7351578 70.045073,54.2686995 72.1799627,50.4408742 C74.2250191,46.9488739 76.9051127,41.7524926 80.3329667,34.7291505 C80.0554709,29.2934467 80.8100965,22.2698676 85.1831057,16.0060581 C87.7757408,12.3662445 90.9063029,10.2854801 92.2399665,9.46612576 C99.5707583,4.90986722 105.613903,6.28841827 120.7212,4.5651731 C123.800688,4.19537083 136.598673,1.82749918 136.997151,1.79263688 C140.340635,0.998210004 156.791334,-1.39786225 167.713213,10.997401 C168.279046,11.6129438 168.85157,12.2729172 169.430783,12.977321 C166.525503,14.887497 164.190813,16.0870576 162.426715,16.5760028 C155.085988,18.7239629 148.506136,18.0950416 144.41677,17.2482309 C143.53013,19.7349695 142.171539,22.5641444 140.306135,25.3372777 C135.222686,33.4045223 128.528592,37.9029275 124.094321,40.2767816 C122.783441,39.1517471 120.541472,37.3199856 118.284772,35.901797 C117.968483,35.7287048 115.754456,34.5170593 113.047299,34.5531408 C108.230702,34.5730105 103.589636,38.8939486 102.223549,43.9321829 C100.775273,49.1783718 102.839826,54.418374 106.124739,57.5439687 C109.040037,60.3178742 112.646808,61.0547065 114.275445,61.3211985 C114.353355,61.9557272 114.436876,62.6012928 114.5248,63.2530438 Z" id="Hair" fill="#482D1F" fill-rule="nonzero"></path>
                    <path d="M169.276392,45.6156492 C169.349863,44.4013172 170.239856,43.3022669 171.443735,43.2762849 C172.239353,43.1926621 172.977329,43.517301 173.422026,44.8782731 C174.552134,47.9771204 171.9604,52.9754115 170.379918,51.331612 C169.348962,50.1328091 169.155734,47.337695 169.276392,45.6156492 Z M153.174561,46.5854701 C153.248031,45.3711381 154.138024,44.2720878 155.341904,44.2461058 C156.137521,44.162483 156.875498,44.4871219 157.320194,45.848094 C158.450303,48.9469413 155.858569,53.9452324 154.278087,52.3014329 C153.147678,51.1130829 153.053903,48.3075159 153.174561,46.5854701 Z" id="Eyes" fill="#482D1F" fill-rule="nonzero"></path>
                    <path d="M161.596408,66.6499953 C160.896408,66.4499953 159.196408,65.9499953 158.896408,64.7499953 C158.896408,64.5499953 158.796408,64.2499953 158.896408,64.0499953 C159.296408,63.3499953 160.596408,63.7499953 162.396408,63.9499953 C165.596408,64.1499953 168.196408,63.9499953 168.196408,63.9499953 C168.196408,63.9499953 167.396408,65.9499953 166.896408,66.5499953 C165.896408,68.0499953 162.696408,66.9499953 161.596408,66.6499953 Z" id="Mouth" fill="#482D1F" fill-rule="nonzero" transform="translate(163.524186, 65.487066) rotate(-6.000000) translate(-163.524186, -65.487066) "></path>
                    <path d="M165.233647,57.3447564 C165.217121,57.3421134 165.113409,57.3494757 165.009518,57.3562342 C164.012282,57.4211082 163.274307,57.4311504 160.598046,57.4311504 C160.045761,57.4311504 159.598046,57.8788656 159.598046,58.4311504 C159.598046,58.9834351 160.045761,59.4311474 160.598046,59.4311474 C163.32248,59.4311474 164.081714,59.4208189 165.139351,59.3520156 C165.2511,59.3447459 165.362665,59.3368262 165.474742,59.3282048 C166.651196,59.1360858 167.398046,58.1225037 167.398046,57.0311504 L167.390746,56.9105419 L166.099072,46.2790725 L166.197902,40.4480971 C166.207262,39.8958916 165.767198,39.4406534 165.214993,39.431294 C164.662787,39.4219346 164.207549,39.8619982 164.19819,40.4142036 L164.09819,46.3142036 L164.105346,46.4517588 L165.395851,57.0736094 C165.380773,57.219814 165.291406,57.3351299 165.233647,57.3447564 Z" id="Nose" fill="#482D1F" fill-rule="nonzero" transform="translate(163.498046, 49.431147) rotate(-6.000000) translate(-163.498046, -49.431147) "></path>
                    <polygon id="Shadow" fill="#482D1F" fill-rule="nonzero" transform="translate(128.459013, 90.313169) rotate(-5.000000) translate(-128.459013, -90.313169) " points="130.917567 97.1124855 122.659013 83.5138527 134.259013 86.8138527"></polygon>
                    <path d="M167.988558,229.218809 L169.394474,219.208391 L169.58125,218.220912 L172.279989,199.23127 L179.148499,197.621133 L188.390731,227.892988 C214.076361,234.845807 233.597611,240.265491 246.954481,244.152039 C254.745297,246.41899 259.093824,248.205661 258.089464,249.273268 C251.638241,248.208183 245.66012,247.867113 240.155101,248.250058 C226.463395,244.231555 215.058883,241.148782 205.941566,239.001738 C198.223517,237.184209 189.461993,235.411153 179.656996,233.682568 C179.039022,233.562493 178.418997,233.442804 177.796921,233.323501 C177.579448,233.297042 177.361504,233.270639 177.143098,233.244293 C174.128823,232.724573 171.019392,232.208909 167.814807,231.697299 L167.988558,229.218809 Z" id="Shadow-Arm" fill="#8C2A00" fill-rule="nonzero" opacity="0.2"></path>
                    <path d="M108.302742,205.075296 C111.13701,207.111783 112.397663,210.738089 111.094357,213.963884 C109.546459,217.795068 105.004534,219.52032 101.030422,217.913555 L97.6492717,216.691734 C96.8701539,216.41019 96.4667906,215.550354 96.7483344,214.771236 C97.0298783,213.992119 97.8897145,213.588755 98.6688323,213.870299 L102.102113,215.112062 C104.637888,216.136581 107.405702,215.085226 108.312806,212.840065 C109.21991,210.594903 107.959244,207.915937 105.423469,206.891417 C104.655364,206.581083 104.284269,205.706835 104.594603,204.938731 C104.733154,204.595805 104.984107,204.332012 105.287833,204.172664 C105.254299,203.55408 105.609093,202.954251 106.214255,202.704728 C111.942027,200.343025 116.994146,196.70204 120.567123,190.499508 C124.930848,183.035742 125.152044,174.720855 122.753842,166.547944 C122.375228,165.257651 121.954647,164.068003 121.513976,162.984324 C121.232179,162.291342 121.082655,161.96024 120.772818,161.303484 C120.419353,160.554249 120.740188,159.660333 121.489423,159.306868 C122.238659,158.953403 123.132575,159.274238 123.48604,160.023473 C123.817536,160.726141 123.985484,161.098038 124.292994,161.854254 C124.770265,163.027938 125.22426,164.3121 125.632472,165.703259 C128.242358,174.597576 127.999382,183.731153 123.161818,192.005319 C119.401174,198.533698 114.198275,202.475869 108.302742,205.075296 Z M76.5048559,238.22676 C75.8111748,238.679637 74.8817054,238.484428 74.4288279,237.790746 C73.9759505,237.097065 74.1711604,236.167596 74.8648415,235.714718 L92.863935,223.963809 C93.5576162,223.510932 94.4870855,223.706142 94.939963,224.399823 C95.3928405,225.093504 95.1976305,226.022973 94.5039494,226.475851 L76.5048559,238.22676 Z" id="Shadow" fill="#482D1F" fill-rule="nonzero"></path>
                </g>
            </g>
            <g id="Characters-standing-/-Woman-standing-/-5" transform="translate(0.000000, 171.314065)">
                <g id="Woman" transform="translate(259.000000, 56.687330)">
                    <path d="M167.5,881.31267 C169.985281,881.31267 172,883.327389 172,885.81267 C172,888.297951 169.985281,890.31267 167.5,890.31267 L4.5,890.31267 C2.01471863,890.31267 0,888.297951 0,885.81267 C0,883.327389 2.01471863,881.31267 4.5,881.31267 L167.5,881.31267 Z M493,890.31267 L390.5,890.31267 C388.1,890.31267 386,888.581901 386,886.504978 L386,885.120362 C386,883.043439 388,881.31267 390.5,881.31267 L493,881.31267 C495.4,881.31267 497.5,883.043439 497.5,885.120362 L497.5,886.504978 C497.5,888.581901 495.5,890.31267 493,890.31267 Z" id="Base" fill="#FF5645" fill-rule="nonzero"></path>
                    <path d="M168.53621,881.432553 C168.203536,881.354152 167.856612,881.31267 167.5,881.31267 L5.20823677,881.31267 C5.10070229,880.765073 5.04616354,880.075024 5.06176,879.181504 C5.17396145,878.483356 5.18792338,877.683477 5.40185484,876.88709 C6.68544363,872.108764 8.24106287,868.93543 12.7909895,866.114407 C17.3409161,863.293385 21.9855917,860.774062 26.8250012,858.558184 C44.6741413,850.168416 50.7732123,850.274876 62.5093196,842.578527 C67.3661814,839.362801 71.8318304,835.640171 76.0027609,831.61235 C78.7833811,828.927136 84.4604315,824.564701 93.0339121,818.525044 L180,819.942553 L168.53621,881.432553 Z M493.546202,881.342598 C493.366442,881.322854 493.184103,881.31267 493,881.31267 L390.843878,881.31267 L398.926963,830.299421 L470.526963,820.599421 L493.546202,881.342598 Z" id="Shoes" fill="#474961" fill-rule="nonzero"></path>
                    <path d="M284.691384,495.000323 C261.334072,567.213129 243.592208,622.135926 219.046716,698.007147 L204.006081,759.281919 C202.910405,765.369478 196.635173,769.461116 190.160728,768.363359 L114.061089,755.489669 C107.586643,754.391913 103.203942,748.503946 104.399224,742.416387 C107.287823,727.945961 109.777994,715.172067 111.869738,704.394094 C115.455585,686.231214 117.148902,677.449162 119.141039,666.272004 C120.336321,659.485873 121.33239,653.797499 121.930031,650.005249 C145.038822,525.759172 166.354689,430.354153 177.909084,378.460209 C182.78982,356.205691 192.152865,314.191556 224.32588,271.578644 C226.417624,268.884151 228.11094,266.788434 229.107009,265.491085 C230.595429,263.967883 232.168957,262.639093 233.792467,261.480569 C233.755518,261.123192 233.718737,260.765471 233.682129,260.407396 C241.782129,254.607396 248.6,247.71267 281,245.81267 C281.8,245.81267 282.7,245.71267 283.5,245.71267 C314.9,244.61267 344,261.11267 358.2,287.41267 L382.5,332.31267 C386,338.71267 388.5,345.51267 389.9,352.51267 L473.18285,748.148364 C474.271663,753.320779 471.147047,758.447247 466.050751,759.849796 L387.7,781.41267 C381.3,783.11267 374.6,779.61267 372.8,773.71267 L366.7,754.11267 C348.1,701.61267 329.9,646.71267 312.4,589.71267 C302.584169,557.643559 293.363072,526.057668 284.691384,495.000323 Z" id="Legs" fill="#FFCB3D" fill-rule="nonzero"></path>
                    <path d="M368.342966,348.531361 C368.342966,348.531361 338.042966,412.987004 353.242966,416.080076 C353.242966,416.080076 362.342966,411.191026 368.942966,395.625886 L376.051251,366.560167 L368.342966,348.531361 Z" id="Finger" fill="#482D1F" fill-rule="nonzero" transform="translate(362.513896, 382.305719) rotate(-6.000000) translate(-362.513896, -382.305719) "></path>
                    <path d="M238.475615,258.312672 C238.2375,258.486007 237.998959,258.658542 237.759295,258.830118 C240.958384,290.114817 245.474969,318.706106 248.774029,349.990805 C248.827142,350.177326 248.880255,350.363851 248.933368,350.550381 C248.945154,350.915116 248.967196,351.248504 249,351.548998 C249.929664,360.064927 261.907484,408.130682 284.933459,495.746264 C258.039608,578.87637 245.737961,614.648212 218.84411,697.778318 L203.803475,759.05309 C202.707799,765.140649 196.432567,769.232287 189.958122,768.13453 L113.858483,755.260841 C107.384037,754.163084 103.001336,748.275117 104.196618,742.187559 C107.085217,727.717132 109.575388,714.943238 111.667132,704.165265 C115.252979,686.002385 116.946296,677.220333 118.938433,666.043176 C120.133715,659.257045 121.129784,653.56867 121.727425,649.77642 C144.836215,525.530344 166.152083,430.125324 177.706478,378.23138 C182.587214,355.976862 191.950259,313.962727 224.123273,271.349815 C226.215017,268.655322 227.908334,266.559605 228.904403,265.262257 C231.85197,262.245808 235.133305,259.991795 238.475618,258.31267 Z" id="Shadow-Legs" fill="#8C2A00" fill-rule="nonzero" opacity="0.2"></path>
                    <path d="M254.082837,100.805624 C257.627269,99.783872 261.337164,99.0075015 265.196879,98.508041 L270.854392,97.8133858 C277.868775,96.9099221 284.422091,97.2614737 290.462355,98.6067679 L290.462369,98.606771 C291.178054,98.5100665 291.917465,98.4192994 292.67879,98.3367317 C302.97879,97.2391898 317.17879,97.6382959 330.47879,104.72243 C332.27879,105.720195 336.07879,107.715726 340.57879,111.207905 C340.67879,111.207905 340.67879,111.307681 340.67879,111.307681 C341.37879,112.105894 348.57879,120.187793 361.97879,143.03662 C365.27879,148.624106 369.37879,154.311369 372.47879,161.096173 C372.53007,161.275254 372.541905,161.460895 372.519352,161.641322 C373.010841,162.997308 373.27879,164.460044 373.27879,165.985223 C373.27879,173.038671 367.548034,178.75662 360.47879,178.75662 C354.460721,178.75662 349.412679,174.612728 348.044484,169.02871 L347.451436,169.185862 C347.730227,170.233991 347.87879,171.335034 347.87879,172.470698 C347.87879,178.000527 344.356441,182.709506 339.428249,184.485859 L343.271475,215.786426 C343.305977,216.887974 343.328319,217.890489 343.462076,218.97985 C343.970807,223.943678 343.977333,231.381789 340.366008,237.253599 C335.334869,245.511309 327.838775,257.489556 290.964697,262.419227 C251.31149,267.690132 240.44548,257.966468 233.343237,250.997498 C228.430824,246.272797 226.560803,240.068753 225.829243,234.931233 C225.695487,233.841872 225.474635,232.863731 225.241624,231.786557 L215.368651,186.789371 C214.231398,192.68081 209.036571,197.131076 202.8,197.131076 C195.730755,197.131076 190,191.413127 190,184.35968 C190,181.256945 191.108915,178.412632 192.952877,176.199774 C193.768585,171.208278 194.584292,166.677818 195.4,162.608395 C201.1,135.269624 207.6,126.389512 207.6,126.389512 C210.9,121.799791 214.1,118.806495 215.6,117.409624 C226.6,107.032864 240.2,102.942026 250.4,101.345601 C251.68596,101.122456 252.917214,100.946097 254.082837,100.805624 Z" id="Shirt" fill="#FF5645" fill-rule="nonzero"></path>
                    <path d="M93.0339121,818.525044 L114.756348,755.60393 L190.921875,768.541499 L179.3,823.61267 L93.0339121,818.525044 Z M394.503357,779.541125 L457.794922,761.985521 L470.526963,820.599421 L398.926963,830.299421 L394.503357,779.541125 Z M250.926679,84.2543987 C250.655823,84.3425734 250.380288,84.4317188 250.1,84.5218319 C241.5,87.315575 242,87.1160219 241.4,87.315575 C235,88.7124465 229.6,88.2135638 228.6,88.0140107 C220.3,86.9164688 211.4,71.0519995 208.4,48.8018319 C208.1,47.0058543 208.1,45.2098766 208,43.413899 L208.3,25.553899 C208.3,21.5628375 209.4,17.6715526 211.4,14.2791504 C211.6,13.8800442 211.8,13.5807146 212,13.281385 C212.7,12.2836196 213.4,11.2858543 214.1,10.487642 C216.8,7.29479283 220,4.99993249 223.3,3.40350791 C231.1,0.21065875 239.9,-0.0886708591 244.8,0.609764895 C245.5,0.709541431 247.7,1.00887104 250.8,1.40797719 C253.7,2.10641294 256.5,2.50551909 259.4,2.60529562 C261,2.70507216 262.2,4.10194367 262.2,5.69836825 C261.6,21.1304725 261.266667,29.644737 261.2,31.2411615 C261.1,33.6357984 267.2,28.4474185 269.9,28.347642 C274.7,28.2478655 280.7,36.0304353 282.2,41.0192621 C283.8,46.207642 281.9,51.4957984 278.7,54.7884241 C276.4,57.0832844 273.7,58.0810498 271.9,58.5799325 C271.1,58.5799325 270.2,59.3781448 269.9,60.3759101 C269.9,60.3759101 269.9,60.4756867 269.8,60.5754632 L276,72.448871 C276.1,72.7482006 276.2,72.8479772 276.2,72.8479772 C276.2,72.8479772 276.107498,72.8980065 275.939132,72.9890024 L279.5,72.249318 L282.4,97.6172207 C282.4,97.6172207 275.781996,99.474802 268.218206,100.2614 C263.17568,100.785798 258.103249,101.0816 253.000914,101.148805 L250.926679,84.2543987 Z M190.013687,184.955584 C190.325639,191.732383 195.930941,197.131076 202.8,197.131076 C209.036571,197.131076 214.231398,192.68081 215.368651,186.789371 L225.241624,231.786557 C225.474635,232.863731 225.695487,233.841872 225.829243,234.931233 C226.336157,238.491131 227.389691,242.563111 229.623284,246.300163 C214.72627,270.151908 192.686092,292.009309 165.461864,279.705225 C131.068802,264.161164 92.8829275,235.832913 50.9042389,194.720472 C48.8413752,193.597421 46.4181544,192.134893 43.9434183,190.273904 C37.558074,185.484631 34.6556448,180.795133 25.1356768,162.935133 C15.7318061,145.17491 10.757569,118.771137 12.2668322,112.185885 C12.6151237,111.18812 15.9992159,107.103394 19.9465197,110.894902 C24.242115,114.98574 38.0224627,137.591893 44.1756127,148.06843 C44.2540244,148.201033 44.3382454,148.331799 44.4280729,148.460841 C42.8766899,141.841563 43.465756,135.633789 49.7990007,133.420094 C49.7990007,133.420094 56.785654,145.938303 64.6475235,159.879026 C66.1312797,160.759005 67.5697846,161.720079 68.9140388,162.78984 C84.0078567,170.212046 162.193862,208.677943 172.396172,214.082993 L190.013687,184.955584 Z M306.387559,191.256534 C307.526942,191.588188 308.73205,191.766035 309.97879,191.766035 C317.048034,191.766035 322.77879,186.048086 322.77879,178.994638 C322.77879,178.03127 322.671886,177.092815 322.469269,176.190439 L322.503058,176.181485 C323.951812,181.649052 328.943546,185.679666 334.87879,185.679666 C341.948034,185.679666 347.67879,179.961717 347.67879,172.908269 C347.67879,171.772606 347.530227,170.671563 347.251436,169.623433 L347.844484,169.466282 C349.212679,175.050299 354.260721,179.194191 360.27879,179.194191 C362.357094,179.194191 364.319711,178.69998 366.055032,177.822916 C395.489957,269.284243 412.131664,328.601569 415.980152,355.774894 C416.200526,356.676447 416.364152,357.64758 416.471029,358.688292 C418.186387,375.391429 414.400689,401.403123 405.113934,436.723376 C405.035341,436.932289 375.654861,453.965635 353.37235,442.863919 L367.471376,362.348819 L306.387562,191.256539 Z" id="Skin" fill="#DB9E75" fill-rule="nonzero"></path>
                    <path d="M253.000914,101.148805 C229.128265,108.463602 212.996739,126.982035 209.535357,146.769078 C208.579587,152.113775 208.962767,157.696174 210.214918,162.970824 L215.319654,186.236234 C214.603104,192.612259 209.181662,197.568648 202.6,197.568648 C195.530755,197.568648 189.8,191.850699 189.8,184.797251 C189.8,181.654128 190.937972,178.732582 192.825258,176.459276 C193.814675,169.937352 194.087799,168.594544 195.2,163.045966 C200.9,135.707195 207.4,126.827083 207.4,126.827083 C210.7,122.237363 214.034546,119.000557 215.534546,117.603686 C226.534546,107.226926 239.368115,103.138953 249.568115,101.542528 C250.715367,101.343452 251.870822,101.221407 253.000914,101.148805 Z" id="Shadow-Shirt" fill="#444444" fill-rule="nonzero" opacity="0.176985679"></path>
                    <path d="M190.013687,184.955584 C190.325639,191.732383 195.930941,197.131076 202.8,197.131076 C209.036571,197.131076 214.231398,192.68081 215.368651,186.789371 L225.241624,231.786557 C225.474635,232.863731 225.695487,233.841872 225.829243,234.931233 C226.336157,238.491131 227.389691,242.563111 229.623284,246.300163 C214.72627,270.151908 192.686092,292.009309 165.461864,279.705225 C131.068802,264.161164 92.8829275,235.832913 50.9042389,194.720472 C48.8413752,193.597421 46.4181544,192.134893 43.9434183,190.273904 C37.558074,185.484631 34.6556448,180.795133 25.1356768,162.935133 C15.7318061,145.17491 10.757569,118.771137 12.2668322,112.185885 C12.6151237,111.18812 15.9992159,107.103394 19.9465197,110.894902 C24.242115,114.98574 38.0224627,137.591893 44.1756127,148.06843 C44.2540244,148.201033 44.3382454,148.331799 44.4280729,148.460841 C42.8766899,141.841563 43.465756,135.633789 49.7990007,133.420094 C49.7990007,133.420094 56.785654,145.938303 64.6475235,159.879026 C66.1312797,160.759005 67.5697846,161.720079 68.9140388,162.78984 C84.0078567,170.212046 162.193862,208.677943 172.396172,214.082993 L190.013687,184.955584 Z" id="Shadow-Skin" fill="#8C2A00" fill-rule="nonzero" opacity="0.2"></path>
                    <path d="M12.610366,90.1638833 L12.610366,90.1638833 C15.410366,88.6672352 18.410366,88.7670118 19.310366,90.4632129 L62.110366,167.191369 C63.010366,168.88757 61.610366,171.48176 58.810366,173.078185 L58.810366,173.078185 C56.010366,174.574833 53.010366,174.475056 52.110366,172.778855 L9.31036604,96.0506989 C8.31036604,94.2547212 9.81036604,91.6605313 12.610366,90.1638833 Z" id="Phone" fill="#474961" fill-rule="nonzero"></path>
                    <path d="M268.591614,57.9324992 L269.1,57.9812733 C270.4,57.6819437 274.5,57.0832844 277.7,53.7906587 C280.9,50.5978096 282.8,45.3096532 281.1,40.1212733 C279.6,35.1324465 274.8,31.0416085 270,31.141385 C267.3,31.2411615 265.1,32.5382565 264.8,32.7378096 C261.3,35.0326699 259.7,38.2255191 259.7,38.2255191 L258.706738,40.4652753 C258.357538,39.9153604 258.02119,39.3998083 257.7,38.9239548 C250.7,31.141385 243.7,23.4585917 236.6,15.6760219 C232.6,16.6737872 226,17.5717761 218.5,15.7757984 C216.1,15.1771392 214,13.9798208 212.2,12.9820554 C212.9,11.98429 213.6,10.9865247 214.3,10.1883124 C217,6.99546322 220.2,4.70060288 223.5,3.1041783 C231.3,-0.0886708591 240.1,-0.388000468 245,0.310435286 C245.7,0.410211823 247.9,0.709541431 251,1.10864758 C251.9,1.20842411 252.8,1.30820065 253.9,1.40797719 C256.5,1.60753026 258.5,1.80708333 259.7,1.90685987 C274.9,2.90462523 280.8,1.20842411 288.4,5.39903864 C289.8,6.19725093 293,8.09300512 295.7,11.5851839 C299.899003,17.0639174 301.170994,23.2655399 301.3569,28.4155023 L301.4,28.347642 C301.4,28.347642 308.9,54.2895414 298.9,67.3602677 C295.914062,71.2631054 293.926697,74.3831037 292.60779,76.8397945 C294.890236,78.3855766 297.517259,80.2617782 300.3,82.4265247 C307.5,88.2135638 301.7,99.6878655 292.8,97.2932286 L281.979379,94.3565967 L280.660409,82.6031555 C268.824231,75.7344578 268.828342,61.5838603 268.965219,58.6291526 C268.841301,58.3979236 268.716743,58.1656534 268.591613,57.9324992 Z" id="Hair" fill="#482D1F" fill-rule="nonzero"></path>
                    <polygon id="Shadow" fill="#482D1F" fill-rule="nonzero" points="251.985474 93.5225088 262.6 81.3126699 250.885834 84.258959"></polygon>
                    <path d="M214.9,47.2054074 C215.1,48.9016085 215.5,51.8949046 214.7,53.1919995 C213.4,55.2873068 209.9,50.4980331 210.5,47.1056308 C210.8,45.7087593 211.5,45.1101001 212.3,45.1101001 C213.6,45.0103236 214.7,45.9083124 214.9,47.2054074 Z M236.4,45.3096532 C236.6,47.0058543 237,49.9991504 236.2,51.2962453 C234.9,53.3915526 231.4,48.6022789 232,45.2098766 C232.3,43.8130051 233,43.2143459 233.8,43.2143459 C235.1,43.1145694 236.2,44.0125582 236.4,45.3096532 Z M219.804044,47.4149001 C219.853659,46.8648485 220.339785,46.459165 220.889837,46.5087805 C221.439888,46.558396 221.845572,47.0445222 221.795956,47.5945738 L220.9,57.4823906 C220.9,57.6087394 221.036903,57.7794856 221.076526,57.782418 C221.753779,57.834398 222.169543,57.834398 223.877234,57.8018398 C224.684643,57.7864461 225.241184,57.7794856 225.9,57.7794856 C226.452285,57.7794856 226.9,58.2272008 226.9,58.7794856 C226.9,59.3317703 226.452285,59.7794856 225.9,59.7794856 C225.256347,59.7794856 224.711144,59.7863043 223.915358,59.8014764 C222.134161,59.835436 221.690665,59.835436 221,59.7794856 C219.823097,59.7794856 218.9,58.6281926 218.90403,57.3925538 L219.804044,47.4149001 Z M227.4,65.4645135 C226.4,65.8636196 223.2,67.0609381 222,65.8636196 C221.5,65.364737 220.6,63.6685358 220.6,63.6685358 C220.6,63.6685358 223.3,63.6685358 226.5,63.1696532 C228.3,62.8703236 229.6,62.4712174 230,62.9701001 C230.1,63.0698766 230,63.3692062 230,63.5687593 C229.8,64.5665247 228.1,65.2649604 227.4,65.4645135 Z" id="Face" fill="#482D1F" fill-rule="nonzero"></path>
                    <path d="M251.094564,39.9647043 L257.259256,38.3549345 C258.019793,38.1563373 258.782027,38.676621 258.961752,39.5170207 C259.141477,40.3574204 258.670635,41.1996938 257.910097,41.3982911 L252.083686,42.9197265 C252.29091,43.8831883 252.4,44.8830248 252.4,45.9083124 C252.4,53.7358342 246.041693,60.0799325 238.2,60.0799325 C231.343391,60.0799325 225.620888,55.2296287 224.291352,48.7783609 L221.087667,48.998811 C220.774622,56.5498065 214.541644,62.5743459 206.9,62.5743459 C199.058307,62.5743459 192.7,56.2302476 192.7,48.4027258 C192.7,40.575204 199.058307,34.2311057 206.9,34.2311057 C213.922886,34.2311057 219.755994,39.3195076 220.897577,46.0047972 L224.000474,45.7912825 C224.063473,38.0176542 230.397425,31.7366923 238.2,31.7366923 C243.915259,31.7366923 248.842554,35.1066316 251.094564,39.9647043 Z M218.041391,47.2528535 C217.464329,41.6237572 212.697029,37.2311057 206.9,37.2311057 C200.713661,37.2311057 195.7,42.2335625 195.7,48.4027258 C195.7,54.5718891 200.713661,59.5743459 206.9,59.5743459 C213.086339,59.5743459 218.1,54.5718891 218.1,48.4027258 C218.1,48.3135484 218.098952,48.2246147 218.096869,48.1359365 C218.046109,48.0017623 218.013895,47.8579834 218.003539,47.7074871 C217.992752,47.5507228 218.006457,47.3979298 218.041391,47.2528535 Z M238.2,57.0799325 C244.386339,57.0799325 249.4,52.0774757 249.4,45.9083124 C249.4,39.7391491 244.386339,34.7366923 238.2,34.7366923 C232.013661,34.7366923 227,39.7391491 227,45.9083124 C227,52.0774757 232.013661,57.0799325 238.2,57.0799325 Z" id="Glasses" fill="#482D1F" fill-rule="nonzero"></path>
                    <path d="M373.467939,409.763333 C373.569722,408.941183 374.318718,408.35721 375.140869,408.458993 C375.96302,408.560776 376.546993,409.309772 376.44521,410.131923 C375.807262,415.284919 375.183616,419.273409 373.696711,428.140986 C372.216819,436.966734 371.597752,440.925937 370.966788,446.022527 C370.865005,446.844678 370.116008,447.428651 369.293858,447.326868 C368.471707,447.225085 367.887734,446.476088 367.989517,445.653938 C368.627464,440.500941 369.251111,436.512452 370.738016,427.644875 C372.217907,418.819126 372.836975,414.859924 373.467939,409.763333 Z M393.395023,403.966685 C393.547611,403.152432 394.33139,402.616046 395.145643,402.768633 C395.959897,402.921221 396.496283,403.705 396.343695,404.519253 C395.300587,410.085597 394.589861,414.418049 393.082938,424.080267 C391.571384,433.772187 390.857222,438.12558 389.806687,443.731556 C389.654099,444.545809 388.87032,445.082196 388.056066,444.929608 C387.241813,444.777021 386.705427,443.993241 386.858014,443.178988 C387.901123,437.612644 388.611849,433.280192 390.118771,423.617974 C391.630326,413.926054 392.344488,409.572662 393.395023,403.966685 Z M295.601874,179.633005 C295.580221,179.609691 295.559163,179.585545 295.538742,179.560569 C291.758863,174.937523 288.245444,169.292526 285.425813,162.849095 C285.093702,162.090152 285.439717,161.205678 286.198659,160.873567 C286.957602,160.541456 287.842075,160.887471 288.174187,161.646413 C290.880926,167.831865 294.249712,173.244479 297.861258,177.661642 C298.106532,177.961629 298.216334,178.328052 298.198101,178.68679 C298.447461,178.954636 298.6,179.313828 298.6,179.708648 C298.6,180.028337 298.633251,180.355367 298.702075,180.744498 C298.732366,180.915762 298.769326,181.098806 298.818741,181.32561 C298.846753,181.454175 298.949081,181.909876 298.95227,181.927408 C299.897866,185.522164 302.651243,188.388629 306.173387,189.560053 C306.959478,189.821498 307.384787,190.670693 307.123343,191.456784 C306.861898,192.242874 306.012703,192.668183 305.226613,192.406739 C300.752991,190.918864 297.254304,187.274887 296.035874,182.628928 C296.040592,182.650112 295.92034,182.114948 295.887509,181.964262 C295.830362,181.701973 295.786007,181.482304 295.747925,181.266987 C295.650556,180.716461 295.6,180.219241 295.6,179.708648 C295.6,179.683281 295.60063,179.658062 295.601874,179.633005 Z" id="Shadow" fill="#482D1F" fill-rule="nonzero"></path>
                </g>
            </g>
        </g>
    </g>
</svg>